/* XPM */
static char *d0c57dba8be34b789f23432230d23431d3skEeOvBPzjkJTH[] = {
/* columns rows colors chars-per-pixel */
"64 64 145 2 ",
"   c None",
".  c #1B4E10",
"X  c #1D5113",
"o  c #205418",
"O  c #265B1D",
"+  c #28601D",
"@  c #2D6422",
"#  c #306827",
"$  c #3A6A25",
"%  c #36722B",
"&  c #3D7128",
"*  c #3C7C32",
"=  c #447720",
"-  c #43702C",
";  c #477E2C",
":  c #4B7E31",
">  c #A42B17",
",  c #A92E17",
"<  c #A42E1C",
"1  c #AC2E19",
"2  c #B52F1A",
"3  c #BC2F1A",
"4  c #A4301D",
"5  c #AD351D",
"6  c #AE381E",
"7  c #B3341C",
"8  c #BC341C",
"9  c #B0381F",
"0  c #A63320",
"q  c #AC3721",
"w  c #AD3822",
"e  c #B43D22",
"r  c #BA3D21",
"t  c #C3341C",
"y  c #CA3B1D",
"u  c #C33D22",
"i  c #B74122",
"p  c #BC4324",
"a  c #AC5D24",
"s  c #BE5625",
"d  c #956D2F",
"f  c #82742F",
"g  c #BE6F31",
"h  c #CC431E",
"j  c #D2471F",
"k  c #C34524",
"l  c #CC4324",
"z  c #C44924",
"x  c #CC4D26",
"c  c #C2432A",
"v  c #C8472B",
"b  c #CD4C29",
"n  c #DC4524",
"m  c #D44B23",
"M  c #DC4C22",
"N  c #D14729",
"B  c #D54C2D",
"V  c #CD5127",
"C  c #CF5128",
"Z  c #D25227",
"A  c #DB5326",
"S  c #D55429",
"D  c #DB552D",
"F  c #DD5A2B",
"G  c #E24F23",
"H  c #ED4B25",
"J  c #F44C26",
"K  c #F94D27",
"L  c #F44D29",
"P  c #FA4D28",
"I  c #E35326",
"U  c #EE5327",
"Y  c #E1542C",
"T  c #E9562B",
"R  c #E45C2C",
"E  c #ED5C2C",
"W  c #F6532B",
"Q  c #FC542B",
"!  c #F35E2C",
"~  c #FB5B2C",
"^  c #E75931",
"/  c #EC5D31",
"(  c #F35D30",
")  c #FE5E31",
"_  c #E7612F",
"`  c #EB612E",
"'  c #F4622E",
"]  c #FD632E",
"[  c #FE692F",
"{  c #ED6331",
"}  c #F36432",
"|  c #FB6532",
" . c #F56836",
".. c #FE6A33",
"X. c #FD673D",
"o. c #F76B39",
"O. c #FB6C3A",
"+. c #FF733F",
"@. c #F76F41",
"#. c #FE6E42",
"$. c #F77146",
"%. c #FD7344",
"&. c #FB7D53",
"*. c #478529",
"=. c #4A812F",
"-. c #4D8D2E",
";. c #579223",
":. c #408037",
">. c #4D8332",
",. c #4F8A34",
"<. c #428439",
"1. c #458A3A",
"2. c #518C35",
"3. c #47913B",
"4. c #48913C",
"5. c #559536",
"6. c #5E9733",
"7. c #599A39",
"8. c #6A9D28",
"9. c #5AA536",
"0. c #5BA836",
"q. c #5DA13B",
"w. c #7FA32F",
"e. c #62AB3C",
"r. c #6BAE3C",
"t. c #63AC40",
"y. c #69AE41",
"u. c #7DAA40",
"i. c #66B341",
"p. c #68B542",
"a. c #77B447",
"s. c #839F3B",
"d. c #9C903A",
"f. c #AE8F3E",
"g. c #87A33F",
"h. c #82AE43",
"j. c #91B64B",
"k. c #FF8051",
"l. c #FC845B",
"z. c #FD9777",
"x. c #FE9A7A",
"c. c #FEA385",
"v. c #FEA98D",
"b. c #FEAD91",
"n. c #FED0BF",
/* pixels */
"                                                                                                                                ",
"                                                                                                                                ",
"                                                                                                                                ",
"                                                                                                                                ",
"                                                                                                                                ",
"                                                                                                                                ",
"                                                                                                                                ",
"                                                                                                                                ",
"                                                                                                                                ",
"                                                                                                                                ",
"                                                                                                                                ",
"                                                                                                                                ",
"                                                                                                                                ",
"                                                                                                                                ",
"                                                                                                                                ",
"                                                                                                                                ",
"                                                                                                                                ",
"                                                            w.6.3.                                                              ",
"                                                          8.w.>.1.1.3.4.                                                        ",
"                                                          ;.= + @ % * :.<.<.1.1.                                                ",
"                                                                . X o O @ # % * :.                                              ",
"                                                                    $ $ & @   @                                                 ",
"                                                                    : - >.                                                      ",
"                                                                    >.  ; 7.                                                    ",
"                                                                  =.>.    5.                                                    ",
"                                                                  ,.:     5.q.                                                  ",
"                                                                2.2.      -.q.                                                  ",
"                                                                5.:       *.q.                                                  ",
"                                                              7.2.          q.                                                  ",
"                                          T ~ ] ~ ~ Q       7.5.            9.                                                  ",
"                                        Y ! ] [ ] Q P P   e.q.;             9.t.                                                ",
"                                        T ' ] ..| Q J g h.y.>.              0.i.                                                ",
"                                      B R ! } O.O.) R j.a.f V               9.p.                                                ",
"                                      N Y E } O.&.#.( f.d M Q         H J a e.u.I J                                             ",
"                                    u l S R ` o.z.b.X.W L P Q W     H J K s r.g.m H Q ~                                         ",
"                                    t u b D R { &.v.l.| ) Q Q W M G U W P Z s.d.n L ~ ] [                                       ",
"                                    t r k x D `  .@.$.o.| ] ~ U M I E ! ~ ~ _ E ~ | ....[ ]                                     ",
"                                    t 8 r k C F ` { { { { ' ! M M A R ` ' | ..%.l.k.+.....]                                     ",
"                                    t 8 7 r z C S D F F R R A j m A F R {  .%.c.n.x.%.....|                                     ",
"                                      8 7 9 e p z x Z S S Z z h m m A F R { o.&.l.$.o.| | }                                     ",
"                                      t 2 5 6 9 e i p z p p     l x x Z D R { } { { { { / ^                                     ",
"                                        3 2 1 5 6 6 6 6 6       y u k z C S F F F F D D B B                                     ",
"                                            2 2 1 1 , ,         t 8 r p p z x C b b b v c                                       ",
"                                                                  8 7 6 e e p p p p p e e                                       ",
"                                                                  t 8 7 5 5 5 6 q w w 0                                         ",
"                                                                      7 1 , < < < 4 <                                           ",
"                                                                        2 2 , > >                                               ",
"                                                                                                                                ",
"                                                                                                                                ",
"                                                                                                                                ",
"                                                                                                                                ",
"                                                                                                                                ",
"                                                                                                                                ",
"                                                                                                                                ",
"                                                                                                                                ",
"                                                                                                                                ",
"                                                                                                                                ",
"                                                                                                                                ",
"                                                                                                                                ",
"                                                                                                                                ",
"                                                                                                                                ",
"                                                                                                                                ",
"                                                                                                                                ",
"                                                                                                                                "
};
