/* XPM */
static char *c516be0020674cf1f51e616c6a569253P4gWELfCdLVohoaP[] = {
/* columns rows colors chars-per-pixel */
"64 64 113 2 ",
"   c None",
".  c #4FAE32",
"X  c #50AF33",
"o  c #51B234",
"O  c #56BB36",
"+  c #55B338",
"@  c #58B63C",
"#  c #57BB38",
"$  c #59BD3B",
"%  c #59C239",
"&  c #5EC83E",
"*  c #5FC541",
"=  c #5FCA40",
"-  c #62CD44",
";  c #68CF4B",
":  c #65D147",
">  c #67D449",
",  c #69D64B",
"<  c #6CDA4D",
"1  c #6ED752",
"2  c #6DDA50",
"3  c #6EDB50",
"4  c #6EDB51",
"5  c #6FDB51",
"6  c #6FD853",
"7  c #6FDB52",
"8  c #6DD950",
"9  c #6EDC50",
"0  c #6EDD50",
"q  c #6FDC51",
"w  c #6FDD51",
"e  c #6FDE51",
"r  c #6FDD52",
"t  c #70DB53",
"y  c #70DC52",
"u  c #70DC53",
"i  c #70DD53",
"p  c #71DD53",
"a  c #70DE52",
"s  c #70DF52",
"d  c #70DE53",
"f  c #71DF53",
"g  c #70D954",
"h  c #73DA57",
"j  c #72DD55",
"k  c #71DF54",
"l  c #72DE55",
"z  c #72DF55",
"x  c #73DD56",
"c  c #73DE56",
"v  c #75DC59",
"b  c #70E052",
"n  c #71E053",
"m  c #71E054",
"M  c #72E054",
"N  c #72E154",
"B  c #72E055",
"V  c #72E155",
"C  c #73E155",
"Z  c #72E056",
"A  c #73E156",
"S  c #73E057",
"D  c #73E157",
"F  c #73E256",
"G  c #74E157",
"H  c #74E256",
"J  c #74E257",
"K  c #74E357",
"L  c #75E358",
"P  c #76E359",
"I  c #77E45C",
"U  c #78E55D",
"Y  c #7DE563",
"T  c #7CE662",
"R  c #7DE763",
"E  c #7DE863",
"W  c #7DE963",
"Q  c #7DEA62",
"!  c #7DEA63",
"~  c #7EE964",
"^  c #7EEB64",
"/  c #7EEA65",
"(  c #7FEA65",
")  c #7FEB65",
"_  c #7FEC66",
"`  c #80E767",
"'  c #80EC66",
"]  c #80EC67",
"[  c #80ED67",
"{  c #81ED67",
"}  c #81ED68",
"|  c #81EE68",
" . c #82EE69",
".. c #83EE6B",
"X. c #84EF6C",
"o. c #86ED6E",
"O. c #86EF6E",
"+. c #87EF6F",
"@. c #87E870",
"#. c #8FF279",
"$. c #90F37A",
"%. c #92F37D",
"&. c #94F47E",
"*. c #95F280",
"=. c #97F583",
"-. c #9BF787",
";. c #9CF789",
":. c #9DF68A",
">. c #9DF78A",
",. c #9DF78B",
"<. c #9EF78B",
"1. c #9DF88A",
"2. c #9EF88B",
/* pixels */
"                                                                                                                                ",
"                                                                                                                                ",
"                                                                                                      *.1.<.<.                  ",
"                                                                                                    t ` <.1.1.<.<.              ",
"                                                                                                    , m %.1.1.1.<.<.            ",
"                                                                                                    < I X.&.<.1.1.1.<.          ",
"                                                                                                    e Q  . .#.-.1.1.1.<.        ",
"                                                                                                  t e '  . . .X.$.=.-.<.<.      ",
"                                                                                                  8 m  . . . . . . .X.X.@.      ",
"                                                                                                  , U  . . . . . . .(           ",
"                                                  - - , < 8 t u u u                               8 Q  . . . . . .(             ",
"                                            % % $ - , , < < e e u u u u j j j                     m _  . . . . .(               ",
"                                        & % O O + $ - - : > , < e e u n n n m m j h             8 m  .'  . . .Q                 ",
"                                      % O + o o + O * - : : : > , , e u n n n m m m j h         8 U ' ' ' ' Y                   ",
"                                    % O o o + + + + $ - - - : : > , , < e u n n m m m m j 8     8 Q _ ' ' Y                     ",
"                                  % O o o o + + + + O = - - - : : , , , , e u n n m m m J J j 1 u ( _ ( Y                       ",
"                                % O o o o o o + + + + % - - - : > , , < e < e u n n m m m J J m m Q (                           ",
"                                # o o o o o o + + + o O = - > , , , < < e e e e u n n m m m m J P P v                           ",
"                              % + o o o o o o o + + + + & , , , , , , < < e e e e u u n n m m m J J u                           ",
"                              O o o o o o o o o o + + O % : , , , , , , < < < e e e u u n n m m m J J u                         ",
"                            $ o o o o o o o o o o + O % % & > , , , , , , < < < e e e u u n n m m m J J u                       ",
"                            O X o o . o o o o o o + % % % % - , , , , , , , < < < e e e u u n n m m m m J 8                     ",
"                          % o X o o o o o o o o o O % % % % % : , , , , , , , , < < < e e e u n n m m m m J 8                   ",
"                          # X X o o o X o o o o + % % % % % % & > > , , , , , , , < < < e e e u u n n m m m m <                 ",
"                          O . X . X X X o o o o O % % % % % % % & : > , , , , , , , < < e e e e u u n n m m m m ,               ",
"                        % o X X X X X o o o o o O % % % % % % % % = > > , , , , , , , < < e e e e u u n n m m m u ;             ",
"                        # X X X X X o o o o o o O % % % % % % % % % = : > , , , , , , , < < < e e e u u n n m m m 8             ",
"                        O . X X X X X o o o o o O % % % % % % % % % % & : > , , , , , , , , < < e e e u u n n m m m ,           ",
"                        + . . X X X X o o o o o O % % % % % % % % % % % & : > > , , , , , , , < < < e e e u u n m m 8           ",
"                      $ o . X X X X X X o o o o O % % % % % % % % % % % % % = : > , , , , , , , < < < e e e u u n n m ,         ",
"                      $ o . X . X X X X o o o o O % % % % % % % % % % % % % % % - : , , , , , , , < < < e e e u u n n 8         ",
"                      # X . X X X X X X X o o o O % % % % % % % % % % % % % % % % % = : > , , , , , < < < e e e u u n u ,       ",
"                      O . X X X . X X X X o o o O % % % % % % % % % % % % % % % % % % % % = - : , , , < < < e e e u u n 8       ",
"                      + . X X X X . X X X X o o O % % % % % % % % % % % % % % % % % % % % % % % % & & - - : : , , , < e 8       ",
"                    % o . X X X X X X X X X o o + % % % % % % % % % % % % % % % % % % % % % % % % % % % % % % % % % % & &       ",
"                    $ o . X X X X X . X X X X o + % % % % % % % % % % % % % % % % % % % % % % % % % % % % % % % % % % % % %     ",
"                    $ o . X X X X X X X X X X o o # % % % % % % % % % % % % % % % % % % % % % % % % % % % % % % % % % % % %     ",
"                    # X . X X X X X X . X X X X o O % % % % % % % % % % % % % % % % % % % % % % % % % % % % % % % % % % % %     ",
"                    O . X X X X X X X X X X X X X O % % % % % % % % % % % % % % % % % % % % % % % % % % % % % % % % % % % %     ",
"                    o . X X X X X X X X . X X X X + % % % % % % % % % % % % % % % % % % % % % % % % % % % % % % % % % % % %     ",
"                    o . X X X X X X X X X X X X X o # % % % % % % % % % % % % % % % % & % % % % % % % % % % % % % % % % % %     ",
"                  # X . X X X X X X X X X . X X X X O % % % % % % % % % % % % %                   % % % % % % % % % % % % %     ",
"                  o . X X X X X X X X X X X X X X X + % % % % % % % % % % % %                         % % % % % % % % % % %     ",
"                  o . X X X X X X X X X X X . X X X o # % % % % % % % % % %                             % % % % % % % % %       ",
"                  X . X X X X X X X X X X X X . X X X O % % % % % % % % %                                 % % % % % % % %       ",
"                + X X X X X X X X X X X X X X . X X X o % % % % % % % %                                   % % % % % % % %       ",
"                o . X X X X X X X X X X X X X X X X X X O % % % % % % %                                     % % % % % % %       ",
"                X . X X X X X X X X X X X X X X X X X X + % % % % % %                                       % % % % % %         ",
"              o . X X X X X X X X X X X X X X X X . X X o O % % % % %                                       % % % % % %         ",
"              X . X X X X X X X X X X X X X X X X X X X X O % % % % %                                       & % % % %           ",
"            o . X X X X X X X X X X X X X X X X X X . X X o O % % % %                                       & % % % %           ",
"          @ X . X X X X X X X X X X X X X X X X X X X X X X O % % % %                                       % % % %             ",
"          o . X X X X X X X X X X X X X X X X X X X X . X X o O % % %                                       % % %               ",
"        + X . X X X X X X X X X X X X X X X X X X X X X X X X + % % %                                       % %                 ",
"        o . . X X X X X X X X X X X X X X X X X X X X X . X X o O % % %                                   % %                   ",
"          o o X . . X X X X X X X X X X X X X X X X X X X X X X + % % %                                   %                     ",
"              + o X . . . X X X X X X X X X X X X X X X X . X X X O % % %                                                       ",
"                    + o X . . . . X X X X X X X X X X X X X X X X o O % % %                                                     ",
"                          + o o X . . . . . . X X X X X X X X X X X + % % % %                                                   ",
"                                  + + o o X X . . . . . . . . . X X X O % % % % *                                               ",
"                                          $ # O O o o o o o o o o o o o O % % % % *                                             ",
"                                                              $ # # # $                                                         ",
"                                                                                                                                ",
"                                                                                                                                "
};
