/* XPM */
static char *_c8228d77ea74f68a035d33727777334gCsGrAZDrOrxtf5m[] = {
/* columns rows colors chars-per-pixel */
"64 64 138 2 ",
"   c #007E5C",
".  c #017D60",
"X  c #26B63F",
"o  c #27B93F",
"O  c #2BBC3D",
"+  c #2EC13B",
"@  c #32C637",
"#  c #35CB36",
"$  c #38CF35",
"%  c #32C539",
"&  c #34C938",
"*  c #3AD133",
"=  c #0E964E",
"-  c #0D9D4E",
";  c #11974E",
":  c #139C4E",
">  c #028556",
",  c #058B56",
"<  c #088E55",
"1  c #01845B",
"2  c #048A5A",
"3  c #088D5B",
"4  c #069255",
"5  c #0B9354",
"6  c #079855",
"7  c #0C9B53",
"8  c #079059",
"9  c #0A935B",
"0  c #0C9C5B",
"q  c #109651",
"w  c #119A51",
"e  c #129C5C",
"r  c #0EA34F",
"t  c #17A247",
"y  c #1AA646",
"u  c #1EAB45",
"i  c #13A44D",
"p  c #19A44A",
"a  c #14AB4D",
"s  c #1CA948",
"d  c #17B547",
"f  c #1ABB47",
"g  c #16B24B",
"h  c #19B64A",
"j  c #1BB94A",
"k  c #1AB849",
"l  c #1BBC48",
"z  c #1ABA49",
"x  c #0DA050",
"c  c #0EA151",
"v  c #0EA151",
"b  c #12A650",
"n  c #11A551",
"m  c #19A453",
"M  c #13AB50",
"N  c #20AF43",
"B  c #21AF43",
"V  c #20AD45",
"C  c #20AF45",
"Z  c #21AE45",
"A  c #22B243",
"S  c #26B541",
"D  c #27B640",
"F  c #26B543",
"G  c #27B642",
"H  c #23B344",
"J  c #24B342",
"K  c #28B741",
"L  c #27B842",
"P  c #29B940",
"I  c #2ABA40",
"U  c #028761",
"Y  c #028863",
"T  c #058961",
"R  c #048B62",
"E  c #068E60",
"W  c #078F67",
"Q  c #058C62",
"!  c #098F62",
"~  c #078F69",
"^  c #079366",
"/  c #079263",
"(  c #089060",
")  c #099163",
"_  c #089165",
"`  c #099566",
"'  c #0A9667",
"]  c #0C9464",
"[  c #099364",
"{  c #0F9A63",
"}  c #0C9867",
"|  c #0E9B66",
" . c #0E9B67",
".. c #0D9A66",
"X. c #079268",
"o. c #079268",
"O. c #08956A",
"+. c #0B976A",
"@. c #0A9569",
"#. c #0C9A6A",
"$. c #0F9C68",
"%. c #0E9D68",
"&. c #0F9D6B",
"*. c #0D9A6F",
"=. c #0F9F6E",
"-. c #0E9C6A",
";. c #109E62",
":. c #109E6C",
">. c #119F6C",
",. c #0D9F70",
"<. c #0FA16A",
"1. c #19AA65",
"2. c #11A06A",
"3. c #11A26B",
"4. c #15A66B",
"5. c #11A16C",
"6. c #10A56D",
"7. c #13A46D",
"8. c #13A36D",
"9. c #15A96F",
"0. c #16AA6F",
"q. c #12A571",
"w. c #14A671",
"e. c #15A871",
"r. c #17AB71",
"t. c #16AA72",
"y. c #18AD73",
"u. c #18AD75",
"i. c #19AE74",
"p. c #1AAE74",
"a. c #19AD74",
"s. c #1AB275",
"d. c #1DB374",
"f. c #1AB275",
"g. c #1DB578",
"h. c #1BB378",
"j. c #1CC047",
"k. c #1EC148",
/* pixels */
"g a 1 < 7 { ) E 2 2 2 1 5 5 1 ~ W 2 r g g h g h 3 1 1 1 1 b h h g h g 1 5 & % P s 5 1 1 ) 2.4.u.' 1 1 1 1 1 2 6 2 < @ + u 5 2 x ",
"1 1 1 < > &.s.y.u.7.2 1 O & O y 5 < 6 b g j j h 8   p s , 1 6 g j j 6 , O X s : 5 , 1 1 2 X.&.u.2.> 1 , 7 r g j < < & & % F 5   ",
"; u O & =   e.u.} 1 1 p $ # & & + s 1   2 6 i h 8   u $ % F ; , i i   1 2 #.-.@.^ ` 3 1 ; u 5 2 R 1 b j l j g h < > s = > 1 1 5 ",
"t F + # w < 0 9 > 1 1 A u : 5 2   1 6 : 1 1 1 2 2   u # O V ; 1   1 < p 5 _ d.s.s.2.2 1 O # & O N ; < 4 r g j j < _ @.` &.2 1 5 ",
"1   1 5 , i k g a a a <     1 < p O # + 1 1 > 1 1 1 5 < 1 1 1 2 s O & * :   &.q.T 1   u # % O F V : 1 1 1 2 6 a 2 T 9.g.7.1 2 4 ",
"h i 4 1 1 2 g g j h 6 1 5 X < w N F O + 3 ` &.:.2 2 5.q.e.} > 1 , ; u O : 7 x 7 4 < < p = , 1   . 1 p A > 1 1 1 5 , 1 } 3   7 k ",
"j j g 7 2 1 6 l i 1 1 s % # F     1 1 < 4 ) i.7.1   T w.i.2 1 x 6 1   1 1 7 k h h j g ,   , 1 5 F # * # 3 1 1 1 O % p 1 1 1 a l ",
"4 1     1 1 1 4 1 : % # % + # p   < b g k , 1 1 w s = < E 1 2 g k h a 5 1 1 i j h a 1 1 p @ : 2 w : p A < #.r.w.w 5 1 n 4 1 v 7 ",
"5 5 ; p p 1 2 &.3 = y J O @ # & 5 1 2 7 g 2 1 < w & A < 1 1 6 j g a x 6 > 1 , g 6 1 5 O # % % ,   1 1 , 7 2 >.2.1 1 i k.h 2 1 < ",
"F # # # :   %.g.y.@.1   2 5 : A A 1 1   2 : O P 1 2   7 g 1 < 4 1       1 1 1 2   p & # & % # F 1 2 b j j.6   1 1 < b 7 v 6 1 ; ",
"1 ; + :   3 y.y.i.d.r.[ 1 1 1 2 2 1   5 + # # O 2 1 7 j j a 1 , s u A O F > 2 e.%.2 < : u O % $ s 1 1 2 7 , < : 1 > A V p : < 1 ",
"2   1 1 1 7.u.w.7.5.:.>.2 1 2 g g b 7 5 : F # % < 1 7 7 6 6 1 1 : % $ % 5   2.s.u.q.E   1 1 < 5 p 2 1 2 5 V % + 2 1 N * @ V < 1 ",
"h 7 1 1 1 3 0 6 4 4 ,   s :   7 j j j x 1 1 w L 9   ; % O F p 1   1 u 5   ) s.f.f.s.s.7.2 1 1 7 8 2 1 < O # & + ,   = s 2   1 i ",
"h j a < 1 1 r j l g 1 ; # & : 1 g x < q 1 1 1 1 2 1 1 + @ s < 1 6 1   1 1 2.9.&.#._ ) ) 3 1 1 a k g g b < : O & e _ #.W 1 1 7 j ",
"h h j h 7 1 1 a a 1 5 @ % + + 5 1 1 5 # O ; 1 1 1 1 1 5 2     7 j a < 1 1 1 r i - - <   F J   < j j a 6 1 1 1 t 1.h.e.2 1 4 h h ",
"4 4 5 7 7 2 1 2 1   5 w < , 1 > 1 1 p % + O p 1 E 5.7.5.1 1 4 j h j j x 1 1 6 j l a 1 s $ # O 2 b 6 1 s 5 1 1 1 2 9.2 1 1 , 2 2 ",
"a a g 6   u % P V : 2 1 1 ` 2.e.9.1 2 2 1 1 1 < 6 e.u.3 1 1 x a a a a g a <   7 7   5 + o A A = 1   5 $ # F 5 1 2 1 1 1 1 x a a ",
"j k g 1 p + N y ; , > 1 1 E #.q.f.3 1 1 4 7 a h a W ) 1 1 < < 2 2 4 6 4 1 < 5 , 1 1 2 1 1 1 1 2 / 1 w F V s : 1 1 1 : u < 1 6 g ",
"4 a < 1 , / ,.+.o.` / 1 1 s : , T 1 6 g k k h h a 1 1 2   < a j h h k 6 1 O $ % O p < 1 2 } 0.d.y.2 1       2 7 2   p $ % O ; , ",
"  1 2 w t 1 9.s.s.y.[   : # # @ O p 5 < 7 a h k M 1 < O s 5 1 6 g k i 1 y H w 5 , > 1 1 1 2 E @.w.3 , 6 x a h j 5   s & O V : 1 ",
"w F % $ + 1 1 e.#.1   < % @ + P F s 5 1 1 1 < x b 1 < % $ # O < 1 7 1   1 R w.q.5.7.} 1 , O A ; < 1 4 a j j h d 5 1 5 5 1 1 1 2 ",
"1 5 p F F 5 r 7 6 4 2 ; t 5 2 1     5 F : 1 1 1 1 1 , O A : 5 2 1 2 = u H > &.s.s.5.3 1 s # # $ @ F ; 1 2 7 a j 5 2 <.q.e.<.1 1 ",
"x ,     > 2 g j h h j x   1 , 2 p + # * V 1 1 1 2 1 3 3 U T 1 1 w O # * % 2 1 :.E     5 % O J p : 5 2 2 > 1 1 4 2   1 9.f.2 1 7 ",
"j j g 7 , 1 < h h g 6   5 O O , 5 w : s p T 9.y.} 1 [ y.s.r.2 1 1 1 < p s 5 g i n 7 6 w 5 1     1 < p % p   >   5 u ; < E 1 1 g ",
"h a b 7 , 1 1 x a 2 1 s % % # s . 1 1 2 6 7 E 9.3 1   U e.) 1 4 g 7 2   1 1 b k h k j 7   5 w , u % # $ A 1 3 T 5 & H 5 2 1 5 j ",
"2     . 1 2 1 2 1 , I # # & @ # 7   6 g l g 1 1 1 O L : 1 1 1 x l k j a 4 1 2 g j a 1 1 p % % < 1 2 < q = T w.s.E >   6 h 2 2 4 ",
"; u V J O :   &.e.9 , 5 p J O & % < 1 1 6 6 1 : 5 s V < 5 2 1 a a x 6 < 1 1 1 6 7 1 q O & % % F 1 1 < 7 r r 1 %.2 1 7 g k g 1 1 ",
"< A # $ u 1 3 y.u.u.&.1   1 2 < : ; 1 1 , t O $ p     < j a 1 2 1 1 1 2 < 5 1 2 T , F + % & & # p   4 i j g 1   1 1 5 : 6 6 2 1 ",
"1   w s 1 1 9.s.i.f.s.y.{ 1 1 4 6 < 1 1 p # # # s 1 < a a g 6 1 : O + % % w 1 7.f.#.1 1 5 : V O % 7 1 1 1 4 5 V 5   5 % O O p 2 ",
"4 5   1 1 ) e.:.#.@._ ) E 2   4 k h g a 7 < u # F 1 , p : 5 4 2 1 : + # ;   ) u.r.u.e.) 1 1 1 1 < 5 1 1 ; F % & 5 1 1 O % s < 1 ",
"g j 7 1 1 1 4 i r - 7   = % 5   a k h r 2 1 1 5 p 1 1 F * # O 5 1   , ; 1 2 u.s.u.y.u.r.%.1 1 6 M 6 4 2 : O # & 5 1 1 5 <   1 4 ",
"j h k g 4 1 1 a l j 5 , % # # : 4 i 1 5 s 1 1 1 1 1   = O p 2   6 x 1 1 > E 2.} [ 3 3 2 1 w 1 2 h j j h 7 1 ; O e 5.9.5.2 > < h ",
"a a a g g 7 1 2 a <   V O F A s 1 1 1 F * % p , 2 2 2 3 3 1 1 2 h j a < 1 1 < a a a i   t # p   x k i 6 1 1 1 1 2 w.s.) 1 1 7 a ",
"1 2 2 2 2 2 2 1 1   1 2 1 1     1 1 , F A u s 5 1 5.y.u.) 1 2 g l j k j x 2 1 7 l a 1 = # # $ V < 6   : O 5 1 1 1 E [ 1 1 2 1 1 ",
"g g g a 1 q % + F s 5 1 1 _ 2.9.y._ 1 1 1     2 6 ) u.[ 1 1 2 7 7 7 7 x M 6 1 1 6 1 1 s u t ; = > 1 1 O * # F < 1 1 1 1 1 6 g g ",
"g j j 4 < O F y ; 5 > 1 1 2 X.&.u.&.> 2 4 7 a g j 2 T 1 2 6 5 4 5 6 7 2   q : 5 2 2 2 1 1 U U W ) 1 2 s : 5 5 3 1 1 < A ; 1 2 v ",
", b x   1 1 &.-.@.@.` 3 1 : u 5 2 U 1 a j l j h g 2 , < 1 < a l j j h 1 w # # O H : 2 1 3 2.y.g.9.> 1   1 1 4 v < 1 < & # + s < ",
"1   1 5 p < _ g.g.d.&.1 , + # # + N ; < 4 b g j j 1 : % u 5 1 6 g j 4 2 s m 9 2 1 1 1 1 1 < R @.&.1 6 n a h j j 4 1 < % O N t < ",
"< u + # $ w   :.5.1 1 1 J # + O J s ; 1 1 1 2 6 i 1 : $ # # A , 1 4   1 1 X.u.e.e.e.[   : & J : < 1 7 a h j h h < 1 2 5 2 1 1 1 ",
"1 , ; s O w w n 7 4 < 4 p 5 2 1 .   , s N 1 1 1 1 1 = X : < 2 1 < = s O s   7.h.e.) 1 2 % # # $ % J 5   2 7 a h < 1 } q.e.9.2 1 ",
"b 7 1   1 1 7 l h j j a 1   < 1 ; O # * % 2 1 1 2 2 ) E Q ^ 1 1 : o & * V 1 9 &.1 1   p O N p w < 1 1 5 1 1 1 2 2 1   ` s.} 1 < ",
"h j h a 4 1 1 a j h i 1 > V # ; 2 5 ; p u 2 #.y.9.1 } s.g.>.1 2 1   , : w 6 h a a b x w 1     1 < p O # 5 1 1   2 u i 5 3 1 1 7 ",
"h g a 7 4 1 1 < g 5 1 ; + & % + 1   1 2 4 7 2 2.&.> 1 E 7.1 1 v h x < 1 1 1 a j h l a 2 1 p 5 5 J O % # : T [ ` 2 O O : 2 1 1 g ",
", 1     1 2 1 1 2 1 s # # # % # A   < i j l 4   1 I O ; 1 1 1 g k l h i 2 1 < j h 6   5 O # O 1 1 1 1 < < E e.s.2 2   1 g 7 1 6 ",
"< s V A O A 1 E y.} 2 , ; s O % # p 1 1 2 7 2 5 p s w 2 7 1 < a 7 6 2 1 1 1 1 6 , 2 V & & % # u 1 2 6 x g 7 1 [ 1 1 , g j j 5 1 ",
"1 : % $ O 2 1 7.u.u.7.E   1 1 , 5 p 1 1 , ; J # O   1 b j.x 1 1 1 1 < 5 : < 1 _ T = J O % # & # w 1 4 r j 7   1 1 1 < w 6 6 2 1 ",
"1   , s <   [ s.f.f.s.s.2.2 1 2 7 4 , 1 5 O $ & I 1 6 a i a 2 1 u @ % # P > 2 u.u.@.1 1 < ; s K O < 1 1 1 5 p O < 1 1 O % O A 5 ",
"1 7 1   1 1 5.5.#.} _ ) E 3 1 1 a k g g v < : O & 2 < u : = 5 1 1 : % O 1   5.i.y.s.e.) 1 1 1 1 < , 1 2 u % & @ 5 1 1 p # J 5 1 ",
"x k a < 1 1 1 r i : r , 1 O V   6 j g a 6 1 1 1 p 2 1 % * & u 2 1   , < 1 [ h.u.y.e.e.9._ 1 1 i a 7 6 5 p O & & 5 1 1 , 5 1 1 1 ",
"j h j j 7 1 1 7 l l x 1 A # $ F , b 4 1 V 5 1 1 1 1   y A < 1 1 a 7 1 1 1 ) ;.6 9 2 2 1 5 :   5 j j l a < 1 ; O 5 &.7.e._ 1 1 a ",
"a a a a g b 2   7 7   ; + X V u 5 1   : * # F 5 1 3 E [ U 1 1 7 j h a < 1 > 7 h g h 7 1 O # :   a g 7 5 1 1 1 1 > ` g.&.1 1 4 a ",
"2 2 2 < 1 2 6 2 1 1 1 2 1 1 1 1 R 2 1 p F s s q 1 e.s.w.2 1 6 j j h j k x 2 1 i j 6 1 A $ & # t , ,   P O 5 1 1 1 2 ` 1 2 2 2 2 ",
"h g j 6 1 K # % L p < 1 2 } 9.f.i.1 1 1   . 1 4 7 ` e.2 1 1 4 6 5 7 7 7 x 6 1 1 2   < y : = < < 1 1 5 % % % V 2 1 1 > 1 1 7 h j ",
"g k a 1 p L p = < > 1 1 1 2 W -.t.3 1 4 7 a g l a 1 1   1 x a a a a a 2 1 P + J p w 1   R @.:.e.} 1 2 2 1 2 < 5 2   p o w 1 2 i ",
"2 x 2 1 1 T q.5.&.:.} 1 > F u = 2 1 4 g k k h h M   : s < 1 6 g j l x 2 F O u t = , 1 1 2 _ &.u.9.> 1 2 4 x a h 5 . p $ # % p 2 ",
"1 1 5 p u 1 >.s.s.9.3   s # # $ % A w 1 < n g k a   p $ % F ; , 7 a 1 1 , ' -.@.^ ^ 3 1 5 s 5 2 Y 1 x h l j h h 5   p + u : 5 1 ",
"; O # * + 1 1 5._     5 & + K u p ; < 1 1 1 1 7 7 1 p # O A p 1   1 2 p 5 E f.s.s.4.2 1 F # & + N ; < 6 x g j k 4 1 8 2 1 R 1 2 ",
"1 1 5 s V 5 a i - 7 5 7 5 1 1 1   2 t O t 1 1 1 1 1 5 5 1 1 1 1 p O @ * s   ' e.E 1   t # % O O A p ,   1 1 6 a < 2 <.u.f.%.> 1 ",
"a 6 1   1 1 a k h j j 7 . < 5 2 u + # * A 1 2 3 E 2 &.q.e.2.1 1 , ; s + p 6 x 7 , < 2 p : < 2 1   1 : J , 1 1 1 2 1   #.e.1 1 b ",
"j l j a 8 1 2 g j a ,   : + % < 2 < 5 : : 1 w.h.#.  U 7.s.3 1 7 7 1   1 1 5 j j h h g 6   2 1 5 A % $ $ 5 1 > 1 w O y 5 1 1 2 g ",
"a i 6 4 1 1 1 7 r 1 5 F & @ & J 1 1 , 5 7 7 1 &.5 s = < E 1 1 a l h a 6 1 1 x j h a , 1 : % p , ; : p J 5 _ 9.q.9 O p < < 1 6 g ",
"1   1 1 2 < 1 2 1 , P @ @ & & # t   5 a l g 1   5 & F 5 > 1 < j g a i 7 1 1 2 g x 1 < F & % % 5   1 1 2 6 4 #.9.1 1   x k 4 1 2 ",
": O O O % ; 1 2.u.` 1 , 7 p J O & 5 1 1 2 5 < u w 2   4 h , 2 6 1 1     1 1 1 2 1 : % # @ % @ O 1 2 x h k.7   1 1 1 7 g g g 1 , ",
"2 s % & p   ) u.y.u.7.2 1 1 1 2 5 7 1 1 < s % $ p   5 h j a 1 > : p u F F < 1 7.&., 5 : V O % # s 1 1 2 r 6 2 : 2 1 5 : 5 4 2 1 "
};
