/* XPM */
static char *_2b8bd3ca71a4b0796cdfc9922891275czcYVVOwtgKv0aZr[] = {
/* columns rows colors chars-per-pixel */
"64 54 231 2 ",
"   c None",
".  c #473B34",
"X  c #3A5B3B",
"o  c #584236",
"O  c #7B553B",
"+  c #6F4A34",
"@  c #47683D",
"#  c #58544E",
"$  c #5E5B58",
"%  c #4C5348",
"&  c #635C55",
"*  c #705945",
"=  c #487946",
"-  c #506C4E",
";  c #76624C",
":  c #6E645D",
">  c #666657",
",  c #77665C",
"<  c #5D6373",
"1  c #6B6765",
"2  c #756D64",
"3  c #776965",
"4  c #767166",
"5  c #7A7165",
"6  c #7B746B",
"7  c #7E786F",
"8  c #777168",
"9  c #6A6A78",
"0  c #737478",
"q  c #875839",
"w  c #955B3A",
"e  c #8A4734",
"r  c #B95A3F",
"t  c #A8583E",
"y  c #95623B",
"u  c #A4663F",
"i  c #B4683F",
"p  c #C45C3F",
"a  c #895E45",
"s  c #905F47",
"d  c #BE5D42",
"f  c #B65E43",
"g  c #8B634C",
"h  c #866148",
"j  c #956245",
"k  c #9B6544",
"l  c #9D6A48",
"z  c #977545",
"x  c #876454",
"c  c #8D735C",
"v  c #967156",
"b  c #A76A44",
"n  c #AC6B42",
"m  c #A66845",
"M  c #BD6244",
"N  c #B26C42",
"B  c #B46248",
"V  c #BB6845",
"C  c #A67749",
"Z  c #BA7245",
"A  c #BA7648",
"S  c #BE7B4C",
"D  c #B67447",
"F  c #AC7C5C",
"G  c #A97759",
"H  c #BC7E53",
"J  c #B57D58",
"K  c #837A6F",
"L  c #8A7869",
"P  c #927564",
"I  c #947C6D",
"U  c #997865",
"Y  c #847C72",
"T  c #897F73",
"R  c #867979",
"E  c #947A70",
"W  c #A67D65",
"Q  c #C25E42",
"!  c #C36245",
"~  c #CA6545",
"^  c #C16B45",
"/  c #C56549",
"(  c #C56949",
")  c #CA6949",
"_  c #C8674A",
"`  c #C17645",
"'  c #C37A46",
"]  c #C97D47",
"[  c #C47C4A",
"{  c #C97E4A",
"}  c #CD704A",
"|  c #4D844B",
" . c #558C47",
".. c #55974B",
"X. c #599658",
"o. c #538856",
"O. c #6A9149",
"+. c #62AB56",
"@. c #68B75B",
"#. c #6E8F6C",
"$. c #6BB665",
"%. c #5EA458",
"&. c #75C96A",
"*. c #6FC262",
"=. c #72C55B",
"-. c #BB8459",
";. c #B9854A",
":. c #8A8175",
">. c #8D867A",
",. c #978678",
"<. c #9D806E",
"1. c #AA8467",
"2. c #BB8B67",
"3. c #A68B78",
"4. c #AF907B",
"5. c #B89478",
"6. c #B28E74",
"7. c #8AAB56",
"8. c #C5804E",
"9. c #CC814C",
"0. c #C6884C",
"q. c #D1874F",
"w. c #C38253",
"e. c #CB8552",
"r. c #CC8A5A",
"t. c #C78859",
"y. c #D38953",
"u. c #D18F5D",
"i. c #D88E54",
"p. c #D1915E",
"a. c #C58C61",
"s. c #CA8E62",
"d. c #CA9267",
"f. c #D39768",
"g. c #CA9D7B",
"h. c #C69976",
"j. c #D59E74",
"k. c #CFA17D",
"l. c #D2A27A",
"z. c #3F668C",
"x. c #5D6E87",
"c. c #5F718B",
"v. c #497A9D",
"b. c #467599",
"n. c #5B769A",
"m. c #426B91",
"M. c #656E84",
"N. c #657489",
"B. c #777887",
"V. c #667A97",
"C. c #4A7DA2",
"Z. c #4A76A7",
"A. c #5A7BA4",
"S. c #547CAC",
"D. c #547CA7",
"F. c #557FB0",
"G. c #607DA2",
"H. c #4C82A5",
"J. c #4F85AB",
"K. c #4F88AA",
"L. c #5485AB",
"P. c #538BAD",
"I. c #5D81AC",
"U. c #5382B3",
"Y. c #5A84B4",
"T. c #528CB2",
"R. c #5B8BB9",
"E. c #5593B5",
"W. c #5A98B6",
"Q. c #5694B9",
"!. c #5A9ABB",
"~. c #5995B9",
"^. c #618BB9",
"/. c #6389AA",
"(. c #5B9DC2",
"). c #5DA3C5",
"_. c #5EA5C9",
"`. c #5FA9C9",
"'. c #60A4C5",
"]. c #62ACCB",
"[. c #66ACCB",
"{. c #6BB1CC",
"}. c #67B0CD",
"|. c #63B2D0",
" X c #6195C1",
".X c #9B928A",
"XX c #9A8E87",
"oX c #A38F82",
"OX c #A6968A",
"+X c #B89B86",
"@X c #A49A95",
"#X c #ACA39A",
"$X c #B9A797",
"%X c #A6A28A",
"&X c #B4ACA7",
"*X c #BBB2A9",
"=X c #ADA7A5",
"-X c #C7A58A",
";X c #C3AD9B",
":X c #C9AC96",
">X c #D7B698",
",X c #D1AD8F",
"<X c #CABBAA",
"1X c #D7BEA6",
"2X c #C7BCB2",
"3X c #C49E81",
"4X c #DCC4AB",
"5X c #D7C2AC",
"6X c #CDC3B5",
"7X c #D3C5B4",
"8X c #D8CBBC",
"9X c #E2C5AA",
"0X c #E3CCB4",
"qX c #E6CFB9",
"wX c #E7D1BB",
"eX c #E8D2BC",
"rX c #D7CEC3",
"tX c #DDD1C3",
"yX c #DCD4C9",
"uX c #E2D4C3",
"iX c #E6DBCB",
"pX c #EBDDCD",
"aX c #E6D7C6",
"sX c #E9DFD1",
"dX c #E6DED2",
"fX c #ECE2D4",
"gX c #EFE6D9",
"hX c #F0E7D9",
"jX c #F0E8DA",
"kX c #F0E4D4",
"lX c #F0E1CD",
/* pixels */
"                                                                ~.~. X                                                          ",
"                                                                Y.F.U.R.                                                        ",
"                                                              Y.n.9 M.I.                                                        ",
"                                                            Y.V.U n j 9 I.                                                      ",
"                                                          Y.G.U { n u s M.Y.                                                    ",
"                                                        Y.A.E 9.` m y m s M.Y.^.                                                ",
"                                                      U.S.R e.w.D [ b l b x c.Y.R.    & 3 3 5 6 6 :.                            ",
"                                                    m.S.B.w.r.4.-.9.[ W W b , n.S.b.  & : : 3 3 3 T                             ",
"        [.[.[.}.}.[.[.}.}.}.}.{.}.}.}.}.}.}.}.[.!.R.D.B.H r.-X<Xt.9.9.6.OXW m 3 n.S.  & : : 3 8 4 T                             ",
"      W.W.~.W.W.W.W.W.W.W.W.W.W.W.W.W.W.W.W.E.E.T.U.V.J e.-XtX7Xt.9.e.-X&XOXF k 3 A.I.1 : : 2 8 5 K                             ",
"      !.(.(.(.(.!.!.(.(.!.~.E.~.!.(.!.!.!.W.E.P.U.V.W 9.2.7XsX7Xa.q.y.>X8X=X3.b j 9 S./.0 : : 3 3 K                             ",
"      ].].].].`.`.].].].]._.)._._.'._.).).!.Q.U.V.W 9.Z -.4XsX7Xa.q.y.>XiX2X1.w u j 9 S./.0 1 : , K                             ",
"    `.`.].].[.'.`.].[.}.[.`.`.].].].).!.~.T.U.A.I 9.S N [ j.eX7Xa.9.e.>XiX>Xw.y w b g M.F./.N.1 : L                             ",
"    v.H.K.P.L.v.v.K.P.E.P.H.K.P.P.L.v.b.m.Z.S.R e.s.5.H [ e.>X5Xt.[ e.>X0Xj.9.A v W b x c.U.n.1 3 K                             ",
"    L.H.H.C.H.C.v.C.C.H.L.H.H.H.H.C.b.m.z.D.R [ r.:X8X-X[ 9.f.-X-.[ w.,X,Xe.9.t.+X@X1.b x n.n.9 2 K                             ",
"    `.`.).).).).).).).).`.'.'.).(.W.T.J.S.B.H e.-XtXsX8Xd.{ 9.a.H [ 8.d.r.9.e.,X6X*X@X1.m , n.I.0 2                             ",
"    ].].`.].].].].].].].[.[.[.'.).W.T.U.V.J e.3X8XiXfXpX>Xt.8.[ [ [ 8.[ { { j.uXsXrX&XOXF k 3 A.I.N.                            ",
"    !.W.T.W.).`.'.W.!.`.'.'.!.P.E.T.U.V.G { J -X1X1X4X4X>Xa.[ [ [ 9.9.[ { w.-X4X9X4X;XOXU b k 9 S.Y.                            ",
"  C.C.C.b.b.v.C.H.C.b.C.C.v.b.b.J.F.n.U { Z S t.r.r.r.r.r.e.9.9.9.9.9.9.9.9.r.u.u.u.r.t.D k b j 9 S.R.                          ",
"  ).!.!.!.~.T.E.~.~.E.T.T.J.C.m.Z.A.P [ Z Z 9.9.9.{ [ [ [ 9.9.{ { 9.9.9.9.9.9.9.9.9.9.9.{ D u u g M.F.L.                        ",
"  |.].].].]._.`.].].]._.(.~.b.b.D.R [ S D H w.w.w.[ [ [ { { [ [ S S ` [ [ { 9.9.9.9.w.t.t.w.C l b g N.I.                        ",
"  `.].].].].`.].].].'.!.~.J.Z.S.0 H t.+X$X;X;X;X5.-.{ { ` N i N N N N N n N D [ 9.9.2.$X;X;X$X,.W b x V.Y.                      ",
"  C.H.K.L.L.v.C.H.H.C.b.m.Z.S.B.H e.:XaXsXfXsXuXl.9.{ Z i V ( _ _ _ _ _ ( ( V n ` 9.r.1XiXfXtX*XOXF m , A.R.                    ",
"W.K.H.C.H.K.H.C.C.C.v.b.Z.F.N.G e.-XuXfXfXfXsX>Xy.9.` i ( ( ! ! ! ! ! / / / _ V n [ 9.j.uXhXfXtX*XOXF k 3 A.R.                  ",
"].].`._._.'.`._._.).~.U.U.V.G { h.8XsXaXiXpXqXj.9.{ V ( ! ! ! ! d d d d ! ! ! _ V N 9.y.9XfXjXgXrX*XOXG k 9 S.^.                ",
"C.E.(.(.(.'.~.(.(.(.Q.U.n.U ] [ >XiX8X.X*XtX>Xe.9.` ! ! ! ! d r d M M f d d ! ! _ N [ e.,XfXjXhXfX8X#XG n j 9 F.R.              ",
"< < x.c.N.N.9 x.N.c.x.M.P ] ] w.1X6X:.# : #X-X9.9.` ! ! ! d r d ! ~ ~ / / d d ! / V Z 9.j.aXjXjXgXfX2X1.N n s x.Z.              ",
"  w j j k b m k k k j m [ [ ' e.>XOX& & # 6 5.9.9.^ ! ! ! r d d ! ! ~ / _ / d ! ! ( Z 9.f.uXhXjXhXgX8X2.S N m                   ",
"      4.+X+X4.4.4.4.4.4.4.F [ 9.-X.XK OX>.XX5.9.9.V ! ! ! d d Q ! ! ! / _ _ M ! ! ( Z 9.p.qXhXjXjXgX8X2.9.[                     ",
"      =X#X,.<.<.<.<.I I ,.1.{ 9.6.@X:.%X>.#Xh.9.9.^ ! ! ! d d d Q ! ! _ _ _ M ! ! ( Z 9.p.0XfXkXhXgX7X-.9.y.                    ",
"      &X#Xv q q q q q q P 1.9.9.6.@X2 > > $Xh.9.9.^ ! ! ! d d d Q ! ! _ _ _ / M ! ( Z 9.u.9XpXsXgXgX<Xw.9.y.                    ",
"        =XU q ; O + + q P 3.[ 9.5.#XR . 2 7Xh.9.9.^ ! ! ! d d d Q ! ! ( _ _ ! M ! ( Z 9.u.0XfXfXfXfX<Xw.9.y.                    ",
"        &X<.a 5 & . o q P 3.[ 9.h.&X#X>.*XaXh.9.9.^ ! ! ! d r d Q ! ~ ( _ _ ! d ! ( Z 9.p.qXhXgXdXdX;Xw.9.y.                    ",
"        &X3.a :.> . o O P 3.[ 9.j.2X6XrXfXiXg.9.{ ^ ! ! ! d d d Q Q ! _ _ _ M d ! ( Z 9.u.0XgXgXfXsX;Xw.9.i.                    ",
"        &X3.a c ; o + q c 3.S 9.j.aXfXfXhXiXg.9.9.^ ! ! ! d r d Q Q ! ! _ _ ! d ! ^ Z 9.u.wXhXjXhXfX:Xw.9.i.                    ",
"        &XoXa g ; O O O c oXH 9.f.aXhXjXhXiXg.9.9.^ Q Q ( ! M ! ( ~ ~ ( ( _ _ ! ! / Z 9.u.wXgXjXjXfX-X8.9.                      ",
"        2X$XC U ; + * O x oXH 9.f.0XlXkXhXiXg.9.9.V i N / _ _ ) ) ) _ _ _ ( _ ! ! / Z 9.u.wXhXjXjXsX-X8.9.                      ",
"        yX4Xt.1., ; ; O g oXH 9.u.9XpXlXhXiXg.9.9.N z ;.D ! ~ ) ~ ~ / ! ! ! ! ! ! / Z 9.u.wXhXjXhXiX+X{ 9.                      ",
"        aX0Xr.d.1.v c h h oXJ 9.r.9XpXfXhXiXg.9.{ u q z b M ( ~ ~ ~ ~ / ! ! ! ! ! / Z 9.p.eXhXjXgXiX5.{ q.                      ",
"        tX9Xe.8.8.D w q a ,.J 9.u.0XgXhXfXaXh.{ ] w + O t M M ! ! ! ! ! M M ! ! ! / Z 9.p.eXhXjXhXiX5.9.9.                      ",
"        rX9Xs.r.r.t.l h g ,.F 9.y.9XgXfXpXuXh.{ ' w e t d M M M d d d d d d d Q ! / Z 9.p.wXhXjXgXaX2.9.0.7.@.@.$.*.&.          ",
"        2X4X>X,X,X-X3.,.,.,.F ] e.9XfXfXpXuXh.{ ] N r Q ! ! ! ! d Q Q Q Q Q d Q ! / Z 9.r.0XfXfXgXtX2.9.0.O.+.@.@.@.$.&.&.      ",
"        -.d.d.d.d.a.v h h h k ] 9.>XiXpXpXuXh.{ 9.^ Q ! ! ! ! ! d Q Q d Q Q d Q ! / Z { r.4XuXiXpX8X2.9.;.O. ...+.@.@.*.&.&.    ",
"        n ' ' ' ] ' y q q + w ] 9.d.g.k.k.g.w.{ 9.^ Q ! ! ! ! ! d Q Q d Q Q d Q ! / Z { 9.d.g.g.k.h.H 9.;.O...= | +.=.@.@.$.    ",
"        F d.d.d.s.t.l a h h j ] 9.` ` ` ` ` ` ] { ^ Q ! ! ! ! ! d Q d d p p d Q ! / Z { { ' [ [ [ Z ` 9.;. ...| =  .+.@.%.$.    ",
"          uXuXuX0X,X3.<.OX.XU ] 9.` D A Z Z ` ] ] V Q ! ( ( ! / ! ! ! ! ! Q M ! ! / N [ [ [ [ [ S Z ` 9.C @ = ..| = X.+.X.X.    ",
"          dXpXiXuX0X$XOX#X@X3.` 9.a.-X-X-X-X-.' ' V Q ! ( / / ( ( ( ( / / M / ! ! / N ' w.g.-X-X-X5.S 9.C @ = ....| X.X.X.X.%.  ",
"        .X6X5X<X<X7X#X.X.XXXP Z ] j.uXiXiX8X5.` ` V d Q ! d d d Q ! ! ! ! d M Q Q ! N ` t.4XiXiXaX;XS { z X X = = = | o.X.o.#.  ",
"        K XX,.,.,.,.:.1 & $ & b A 2.<X6X7X<X1.N N n f M M B B B B M V M B B B B f B m N J ;X6X7X<XOXD S z % X X - = - - = - #.  ",
"        8 7 7 7 7 7 7 $ % % : L L I :.>.>.Y L c P P P P P P P P P P P P P P P P P P c c P T >.>.T K L I I 4 $ $ > > > > 4 7 >.  ",
"        2 7 Y Y Y Y 6 & # # 2 Y 7 7 6 7 7 : : 2 2 2 4 4 4 2 2 2 4 2 2 2 2 2 2 2 2 2 4 4 4 2 6 7 2 6 Y K Y T 6 7 7 7 Y Y Y Y Y ,.",
"                          $ 8 Y Y 7 6 6 8 $ 1 6 6 6 6 6 6 6 6 6 6 6 6 8 6 6 6 6 6 6 6 6 6 4 6 7 2 6 Y 7 7 :.                    ",
"                                            K Y :.:.:.:.T :.:.:.T T T T T Y T T T T T T Y T                                     ",
"                                            2 2 4 4 4 8 4 2 4 4 4 2 2 2 4 2 2 4 4 4 2 2 2 6                                     "
};
