/* XPM */
static char *e4873fb59ef54f1dbe24b343d476ee02wnAO6zkj1Jr2uMBP[] = {
/* columns rows colors chars-per-pixel */
"64 64 196 2 ",
"   c None",
".  c #12100E",
"X  c #1A1916",
"o  c #191714",
"O  c #221E1A",
"+  c #27231E",
"@  c #292623",
"#  c #242424",
"$  c #342D25",
"%  c #392D24",
"&  c #3A342D",
"*  c #3A3935",
"=  c #3C3936",
"-  c #413327",
";  c #40372D",
":  c #423B2D",
">  c #4B3B2C",
",  c #443B32",
"<  c #423F3B",
"1  c #4F3F30",
"2  c #48402C",
"3  c #4D4539",
"4  c #4B4538",
"5  c #554533",
"6  c #554A3D",
"7  c #574A35",
"8  c #5E543D",
"9  c #5C5337",
"0  c #634D3A",
"q  c #63543D",
"w  c #695C3E",
"e  c #64593F",
"r  c #725F3F",
"t  c #4F4C49",
"y  c #4D4947",
"u  c #514C42",
"i  c #574E44",
"p  c #59524A",
"a  c #5A5147",
"s  c #5D5A54",
"d  c #5A5957",
"f  c #6C5C41",
"g  c #65594B",
"h  c #6A5845",
"j  c #755D46",
"k  c #645D59",
"l  c #655E53",
"z  c #6F624E",
"x  c #716445",
"c  c #7B6C4A",
"v  c #72644A",
"b  c #6A6259",
"n  c #746555",
"m  c #73695B",
"M  c #7E6D5A",
"N  c #7E715E",
"B  c #6C6765",
"V  c #756D65",
"C  c #787368",
"Z  c #7C7671",
"A  c #7C7B75",
"S  c #727370",
"D  c #82734D",
"F  c #836C56",
"G  c #8A7457",
"H  c #957E59",
"J  c #9B7E5E",
"K  c #927657",
"L  c #837563",
"P  c #887560",
"I  c #8C7B65",
"U  c #8A7D6B",
"Y  c #85796A",
"T  c #857E7A",
"R  c #98875A",
"E  c #A28B5F",
"W  c #8F806D",
"Q  c #94826D",
"!  c #9A846D",
"~  c #9D886F",
"^  c #8C8274",
"/  c #89837D",
"(  c #958673",
")  c #988672",
"_  c #9D8973",
"`  c #958A7A",
"'  c #AE8A68",
"]  c #A78764",
"[  c #B08C69",
"{  c #AD9A66",
"}  c #A89464",
"|  c #B9936E",
" . c #B09C69",
".. c #A38C74",
"X. c #AD957A",
"o. c #A5937D",
"O. c #BF9973",
"+. c #B1977D",
"@. c #B3997E",
"#. c #BD9571",
"$. c #B6A26B",
"%. c #BBA76E",
"&. c #BFAA71",
"*. c #C29F65",
"=. c #C39A74",
"-. c #C3AE73",
";. c #CCA27A",
":. c #D1A77D",
">. c #D6A97F",
",. c #C9B377",
"<. c #D3BC7D",
"1. c #C7A269",
"2. c #D8C17F",
"3. c #8A8683",
"4. c #8E8B85",
"5. c #8D8D8D",
"6. c #938C84",
"7. c #9A948D",
"8. c #9E9A8F",
"9. c #93928F",
"0. c #9D9993",
"q. c #A99882",
"w. c #A59987",
"e. c #B69C81",
"r. c #B99F84",
"t. c #A19A92",
"y. c #BCA385",
"u. c #BDA48A",
"i. c #BEA88E",
"p. c #B5A48B",
"a. c #A7A29A",
"s. c #ABA59E",
"d. c #B9A993",
"f. c #AAAAA3",
"g. c #B2ABA4",
"h. c #BBB4AC",
"j. c #B4B0A8",
"k. c #BBBBBB",
"l. c #BEB8B1",
"z. c #C0A78A",
"x. c #C4AB8C",
"c. c #DCAF83",
"v. c #C6AC90",
"b. c #C8AF93",
"n. c #C1AE99",
"m. c #C6B195",
"M. c #CAB195",
"N. c #CDB59A",
"B. c #CDB99E",
"V. c #D0BB9F",
"C. c #E4B586",
"Z. c #C7B9A8",
"A. c #D1BCA1",
"S. c #C1BAB3",
"D. c #DEC683",
"F. c #E4CB85",
"G. c #E6CB85",
"H. c #EDD48B",
"J. c #F1D68C",
"K. c #F4D98E",
"L. c #F6DC90",
"P. c #FADE91",
"I. c #FCE192",
"U. c #D3C0A4",
"Y. c #CCC4BC",
"T. c #C3C1BA",
"R. c #D0C5BE",
"E. c #D4CCC4",
"W. c #D8CFC7",
"Q. c #DACFC8",
"!. c #D3D1C7",
"~. c #D2D2CD",
"^. c #DBD4CC",
"/. c #D9D8CE",
"(. c #DDDDD2",
"). c #E0D6CF",
"_. c #E9DFD6",
"`. c #E3DAD2",
"'. c #E2E0D6",
"]. c #EDE3DB",
"[. c #E2E3D9",
"{. c #F1E6DD",
"}. c #ECECE6",
"|. c #F5EBE2",
" X c #FAEEE6",
".X c #FBF0E6",
"XX c #FDF2E9",
"oX c #FDF9EE",
"OX c #F5F4E8",
"+X c #FDFDF1",
"@X c #FEFDF1",
"#X c #FFFEF2",
"$X c #FDFEF2",
"%X c #FFFFF4",
"&X c #FEFDF1",
"*X c white",
/* pixels */
"                                                                                                                                ",
"                                                                                                                                ",
"                                                                                                                                ",
"                                                                                                                                ",
"                                                                                                                                ",
"                                                                            m ` Y U d.^                                         ",
"                                                                          m d.A.B.B.U.n.m                                       ",
"                                              : g N W Q Q ) _ ( L b u     L V.V.V.A.A.A.d.C                                     ",
"                                          a P X.i.m.m.M.M.N.N.N.N.N.i.( g 4 ( N.B.B.B.B.A.^                                     ",
"                                    & z _ y.v.v.v.v.v.b.b.b.b.m.m.m.M.N.m.o.l n i.N.N.B.p.g                                     ",
"                                  g ..u.x.z.z.x.x.x.x.x.b.b.b.M.M.m.m.m.m.m.x.m u q.N.N.q.                                      ",
"                              , I r.u.u.u.z.z.x.x.x.x.x.x.x.v.x.x.v.v.M.X.^ ` t.f.s o.N.q.                                      ",
"                            6 ..y.y.y.y.y.y.z.x.x.x.x.x.x.x.x.x.x._ U Q 6.[.}.oX%XS.p Y g                                       ",
"                          a X.r.r.r.y.y.y.y.y.y.z.z.x.x.z.x.) U U 7.'.(.OX%X#X#X#X%Xf.@                                         ",
"                        6 X.e.e.e.r.r.y.y.y.y.y.y.y.y.I U Y 8.(.(.OX%X%X#X#X#X#X#X#XoXA                                         ",
"                ,     ; ..e.e.e.e.e.r.y.y.y.y.y.I U L a.[.'.oX#X#X#X#X#X#X#X#X#X#X#X%X/.<                                       ",
"            $ g ..z O P e.e.@.e.e.e.r.y.@.I I L s./.(.oX#X#X#X#X#X#X#X#X%X#X#X#X#X#X#X#X4.                                      ",
"        ; G ! ..e.M 6 +.+.@.e.e.e.+.I Q L a.Y.!.OX#X#X#X#X#X#X#X#X#X#X#X~.S.(.#X#X#X#X#X/.*                                     ",
"        n @.+.+.X.6 I @.+.+.+.~ _ L 8.h.Y.OXoXoXoXoXoXoXoXoX#X#X#X#X#X^.9.~.S !.#X#X#X#XoXS                                     ",
"        M @.+.@.I 6 X.+.X.X.I ^ t.h..XoXoXXXoXoXoXoXoXoXoXoXoXoX#X#X#X0.k.*Xd 4.#X#X#XoX#Xj.X                                   ",
"      6 ! +.+.@.g n e.! V Y 6.].oXoXXXXXXXXXXXXXoXoXoXoXoXoXoXoXoXoX#X4.d 5.# s.#XoXoXoXoX(.=                                   ",
"      P @.+.+.X.; g P Y E.]..XXXXXXXXXXXXXXXXXXXXXXXoXoXXXXXoXoXoXoXoXE.= + A |.oXoXoXoXoX Xs                                   ",
"      z +.+.+.! , l.W.].XXXXXXXXXXXXXXXXXXXXXXXXXXXXXXXXoXoXoXoXoXoXoXoX'.^.OXoXoXoXXXXXoXoXA                                   ",
"        M +.@.F Z XXXXXXXXXXXXXX^.T.l.].XXXXXXXXXXXXXXXXXXXXXXXXXXoXoXoXoXoXoXoXoXoXXXXXXXoX7.                                  ",
"        6 X.@.j 7.XXXXXXXXXXXX].3.}.~.7..XXXXXXXXXXXXXXXXXXXXXXXXXXXXXXXXXXXXXXXXXXXXXXXXXoXs.                                  ",
"        $ P X.i g.XXXXXXXXXXXX^.3.*Xk.t {.XXXXXXXXXXXXXXXXXXXXXXXXXXXXXXXXXXXXOXXXXXXXXXXXoXj.X                                 ",
"          $ i @ S.XXXXXXXXXXXX_.d B @ p |.XXXXXXXXXXXXXXXXXXXXXXXXXXXXXXXXXXOXOXXXXXXXXXXXoXh.X                                 ",
"              O S.XXXXXXXXXXXXXXs.* t Y.XXXXXXXXXXXXXXXXXXXXXXXXXXXXXXXXXXXXOXXXXXXXXXXXXXoXg.                                  ",
"                h.oXXXXXXXXXXXXXXX].|.XX.X.XXXXXXXXXXXXXXXXXXXXXXXXXXXXXXXXXXXXXXXXXXXXXXXoXa.                                  ",
"                a.oXXXXXXXXXXXXXXXXXXXXXXXXXXXXXXXXXXXXXXXXXXXXXXXXXXXXXXXXXXXXXXXXXXXXXXXoX4.                                  ",
"                / XXXXXXXXXXXXXXXXXXXXXXXXXXXXXXXXXXXXXXXXXXXXXXXXXXXXXXXXXXXXXXXXXXXXXXXXXXV                                   ",
"                k |.XXXXXXXXXXXXXXXXXXXXXXXXXXXXXXXXXXXXXXXXXXXXXXXXXXXXXXXXXXXXXXXXXXXXXX].y                                   ",
"                & E.XXXXXXXXXXXXXXXXXXXXXXXXXXXXXXXXXXXXXXXXXXXXXXXXXXXX.XXXXX.X.XXXXXXXXXY.@                                   ",
"                  7.XXXXXXXXXXXXXXXXXXXXXXXXXXXXXXXXXXXXXXXXXXXXXXXXXXXXXXXXXXXXXXXXXXXXXX7.                                    ",
"                  u ].XXXXXXXXXXXXXXXXXXXXXXXXXXXXXXXXXXXXXXXXXXXXXXXXXXXXXXXXXXXXXXXXXX|.s                                     ",
"                  o t.XXXXXXXXXXXXXXXXXXXXXXXXXXXXXXXXXXXXXXXXXXXXXXXXXXXXXXXXXXXXXXXXXXY.@                                     ",
"                    = W.XXXXXXXXXXXXXXXXXXXXXXXXXXXXXXXXXXXXXXXXXXXXXXXXXXXXXXXXXXXXXXXXZ                                       ",
"                      B |.XXXXXXXXXXXXXXXXXXXXXXXXXXXXXXXX.XXXXXXXXXXXXXXXXXXXXXXXXXXXY.4 x                                     ",
"                      o 6..XXXXXXXXXXXXXXXXXXXXXXXXXXXXXXXXX XS.Y.XXXXXXXXXXXXXXXXXX{.b R H.{ 9                                 ",
"                        O t.XXXXXXXXXXXXXXXXXXXXXXXXXXXXXXXX].< k  XXXXXXXXXXXXXXXXX6.f H.P.I.D.R                               ",
"                          + 7. XXXXXXXXXXXXXXXXXXXXXXXXXXXXX XR.Q.XXXXXXXXXXXXXXXXg.3 <.P.<.%.F.H.{                             ",
"                            X / {.XXXXXXXXXXXXXXXXXXXXXXXXXXXXXXXXXXXXXXXXXXXXXXh.3 &.I.F.f   7 x w                             ",
"                              . s E.XXXXXXXXXXXXXXXXXXXXXXXXXX.X X|.XXXXXXXX.Xs.3 $.P.P.F.q                                     ",
"                                7 3 3.).XXXXXXXXXXXXXXXXXXXXXX|.6.k E.XXXX_.T 6 -.P.P.I.D.5                                     ",
"                              > 1.*.r u Z S.].XXoXXXXXXXXXXXXX|.T B ^.].s.i x D.P.P.P.<.c +                                     ",
"                              w G.J.K.<.R 8 a V 0.S.^.{. X X X|.`.S.4.p e %.K.I.P.F.} G [ -                                     ",
"                              c K.P.K.P.I.J.<.} c 8 6 p k b b s i 8 D -.K.I.P.F. .G ' c.C.f                                     ",
"                              c K.P.R -.P.P.P.I.P.K.F.,.&.$.$.-.2.J.I.I.J.<.} K [ ;.] j >.J                                     ",
"                              x J.P.x x K.P.P.P.P.P.P.P.I.I.I.I.I.J.<. .H J O.:.] 0     | '                                     ",
"                              8 H.L.D   { P.P.P.P.P.I.I.P.J.D.-.} H J | >.:.] 0         q h                                     ",
"                              : <.L.c      .F.F.F.2.,.$.E H J ' =.:.;.' F 5                                                     ",
"                                { L.x       q J J J J ' #.=.O.' K j >                                                           ",
"                                w ,.5       % ] C.=.7 h 0                                                                       ",
"                                  2           > #.>.5                                                                           ",
"                                                5 | K                                                                           ",
"                                                  - 1                                                                           ",
"                                                                                                                                ",
"                                                                                                                                ",
"                                                                                                                                ",
"                                                                                                                                ",
"                                                                                                                                ",
"                                                                                                                                ",
"                                                                                                                                ",
"                                                                                                                                "
};
