/* XPM */
static char *ed2e1c73fff844ebb80b36dfe9cef4b5zsU4KU2bjo7KhecI[] = {
/* columns rows colors chars-per-pixel */
"64 64 245 2 ",
"   c None",
".  c #0C0C0C",
"X  c #191918",
"o  c #0F100F",
"O  c #262625",
"+  c #353533",
"@  c #5B3215",
"#  c #712E1E",
"$  c #7A2A23",
"%  c #763628",
"&  c #763729",
"*  c #403E3D",
"=  c #78592D",
"-  c #794A33",
";  c #5D793D",
":  c #627339",
">  c #696933",
",  c #504F4E",
"<  c #705A4F",
"1  c #686765",
"2  c #777675",
"3  c #74706D",
"4  c #666F53",
"5  c #BD0E0D",
"6  c #B70E14",
"7  c #B71615",
"8  c #B31B11",
"9  c #A82617",
"0  c #B4172B",
"q  c #B51C32",
"w  c #AF1B2F",
"e  c #903E21",
"r  c #B72639",
"t  c #B5332C",
"y  c #9A351D",
"u  c #C41212",
"i  c #C9181A",
"p  c #C10E0F",
"a  c #C51C23",
"s  c #D10736",
"d  c #CF0333",
"f  c #C4283B",
"g  c #C62E34",
"h  c #8C4931",
"j  c #94553A",
"k  c #BD3043",
"l  c #C51C42",
"z  c #C32A44",
"x  c #C63649",
"c  c #D5394B",
"v  c #C83B51",
"b  c #D43C51",
"n  c #D2284F",
"m  c #DA3D62",
"M  c #E03E4F",
"N  c #875747",
"B  c #9B5A49",
"V  c #B94754",
"C  c #B85B53",
"Z  c #AF524E",
"A  c #A8715B",
"S  c #9A7B6B",
"D  c #AD7862",
"F  c #A76058",
"G  c #CB4556",
"H  c #D54658",
"J  c #C8575C",
"K  c #D4565D",
"L  c #E54959",
"P  c #E3444B",
"I  c #C9615B",
"U  c #D6794F",
"Y  c #D84865",
"T  c #CB5C63",
"R  c #D55B66",
"E  c #D6516F",
"W  c #E74E61",
"Q  c #EA5666",
"!  c #EF5E70",
"~  c #CA6463",
"^  c #D46466",
"/  c #D56B6D",
"(  c #DC6A6C",
")  c #D7636A",
"_  c #DA6E71",
"`  c #D56A75",
"'  c #DD7275",
"]  c #DA7778",
"[  c #CC7374",
"{  c #E46D6E",
"}  c #E8676E",
"|  c #E56D72",
" . c #EA6E71",
".. c #EA6674",
"X. c #F36877",
"o. c #E47375",
"O. c #ED7174",
"+. c #E27A7D",
"@. c #E8777B",
"#. c #F17376",
"$. c #F3797C",
"%. c #F27579",
"&. c #298C2B",
"*. c #3F8C3E",
"=. c #2F9132",
"-. c #3BA03B",
";. c #408B3E",
":. c #4E843E",
">. c #4C8E3D",
",. c #438C41",
"<. c #4D8943",
"1. c #548744",
"2. c #489549",
"3. c #51994D",
"4. c #66884E",
"5. c #50A851",
"6. c #79B77C",
"7. c #67B067",
"8. c #62A75D",
"9. c #7DC17F",
"0. c #F9FA08",
"q. c #F6F817",
"w. c #F7F931",
"e. c #848A5B",
"r. c #898B67",
"t. c #A58A78",
"y. c #AD9679",
"u. c #8BA873",
"i. c #D8904F",
"p. c #C78579",
"a. c #D88875",
"s. c #DFA369",
"d. c #F8F94A",
"f. c #F8F969",
"g. c #F9FB7A",
"h. c #D17984",
"j. c #E67D81",
"k. c #EB7D81",
"l. c #F57D83",
"z. c #F67B86",
"x. c #E1748E",
"c. c #7DB682",
"v. c #2C9CD4",
"b. c #309ED4",
"n. c #3AA2D6",
"m. c #48A9D9",
"M. c #58B0DC",
"N. c #72BCE1",
"B. c #66B7DF",
"V. c #7EC2E3",
"C. c #918E8B",
"Z. c #AD978B",
"A. c #86BA8A",
"S. c #B5A599",
"D. c #B6ABA7",
"F. c #BCB7B4",
"G. c #ABA7A5",
"H. c #D88887",
"J. c #D88996",
"K. c #CC9598",
"L. c #D99797",
"P. c #C98A89",
"I. c #E68184",
"U. c #EA8285",
"Y. c #EB8589",
"T. c #EC8A8C",
"R. c #E4898A",
"E. c #F6878A",
"W. c #E98D91",
"Q. c #F58E91",
"!. c #E69897",
"~. c #F69699",
"^. c #E5908F",
"/. c #DAAB95",
"(. c #E3B197",
"). c #DA9AA6",
"_. c #F89CA1",
"`. c #E895A5",
"'. c #D6A9A6",
"]. c #C9BAB5",
"[. c #D8BAB7",
"{. c #D3ABAE",
"}. c #E5A4A3",
"|. c #F6A6A8",
" X c #E5B2AE",
".X c #E7B9B7",
"XX c #F2B6B6",
"oX c #F1ABB5",
"OX c #97C599",
"+X c #8EC48D",
"@X c #B7D6BA",
"#X c #ADCFAD",
"$X c #A2C7A2",
"%X c #F3F58C",
"&X c #CAC5B6",
"*X c #D6C4BC",
"=X c #D8CDB4",
"-X c #E6C5BC",
";X c #E4D1B8",
":X c #F6F7B0",
">X c #E6BAC3",
",X c #95CCE7",
"<X c #B1DAED",
"1X c #B9D0C0",
"2X c #DACCC4",
"3X c #D8C6C3",
"4X c #C8D7C9",
"5X c #DED2CA",
"6X c #D9D6C7",
"7X c #DAD9D6",
"8X c #CFC8C8",
"9X c #E7CAC6",
"0X c #F3C6C5",
"qX c #E2D5CD",
"wX c #EAD4CC",
"eX c #E5D9CE",
"rX c #E5DAD1",
"tX c #EADCD3",
"yX c #E3D8D7",
"uX c #F4DBD9",
"iX c #ECCCD3",
"pX c #D5E6D8",
"aX c #CFE4D4",
"sX c #ECE2D6",
"dX c #EBE3DA",
"fX c #E5E5DA",
"gX c #F1E4DB",
"hX c #F7F8CE",
"jX c #F0DDE2",
"kX c #DCE4E4",
"lX c #C7E3F1",
"zX c #D8EBF4",
"xX c #C2E1EF",
"cX c #EBECED",
"vX c #E6E8E7",
"bX c #F6E7E8",
"nX c #E9F3EA",
"mX c #F6F7EA",
"MX c #EDF2F3",
"NX c #EAF4F9",
"BX c #F2F4F5",
"VX c #FBFCFC",
"CX c #F7F9F6",
"ZX c #ECEFF1",
"AX c #DDDEE1",
/* pixels */
"                                            i i u u u i i                                                                       ",
"                                        i u u 7 8 9 8 8 5 u u                                                                   ",
"                                      u u 9 h = : : : = e 8 5 p i                                                               ",
"                                    i u 9 = 1.3.3.3.3.2.1.= 9 5 5                                                               ",
"                                    u 8 = 1.2.2.2.2.2.2.2.1.= 8 7 a                                                             ",
"                                  i u 9 : 2.2.,.*.*.*.*.,.2.; Z c c                                                             ",
"                                  i u 9 : ,.;.*.*.;.*.*.*.,.1.B H H                                   i u u u u u u u i         ",
"                                    a t N <.*.*.*.;.;.;.,.<.1.D ' | |                             a u 7 9 y e e y 9 7 p p       ",
"                                    M H C 4 ,.;.;.,.<.4.e.y.Z.!.Q.E.z.X.W L L L                 L g y = : 1.1.1.1.: h 9 5 p 7   ",
"                                      Q ) A 4.1.4.r.y.L.!.~.~.~.~.z.%...L P L L L Q ..X.      } K B : <.2.2.2.3.3.3.1.= 9 5 5   ",
"                                        | ' [ y.K.!.~.~.~.Q.Q.E.E.%.X.Q P P P W ! X.%.z.E.Q.E.o.A 1.,.,.*.*.,.,.2.2.2.1.h 8 5 7 ",
"                                        Y.Q.~.~.~.Q.E.E.E.E.l.$.$.X.Q Q L L Q ! X.%.l.E.Q.~.Q.R.r.1.;.*.*.*.*.*.*.2.2.1.= 8 5 7 ",
"                                        |.|._.~.~.E.l.$.%.#.#.#.#...Q L L L Q } #.$.l.E.E.E.Q.Q.H.r.1.;.*.*.*.*.*.,.2.:.h 8 5 7 ",
"                                      ~._.oX9X9XiX0X|.l.O.O.O.O.O. .Q L W Q  . .O.O.@.$.l.U.E.E.Q.H.r.1.;.*.*.*.*.,.:.= 9 5 6 0 ",
"                                    _._.0X].C.1 2 F.iX~.O. . . . . . .}  . . . . . . .O.@.@.k.U.Y.T.H.e.<.*.*.;.,.; h 9 5 6 6   ",
"                                  |.oXiXbX8X, o X 3 3XoX$. . . . . . . . . . .| | { { | | o.o.@.k.Y.T.p.e.1.1.4.N Z g a 7 6     ",
"                                |.|.iXbXcXG.+ . o 1 [.oX$. . . . . . . . . . .|  .o.I.R.I.+.o.o.@.k.U.R.p.D D ~ J G v f         ",
"                              |.|..XD.G.C., o . O 2 3X|.@. . . . . . . . . . .o.T. X9X9X9X.X}.H.' @.k.U.U.] ^ ~ T J             ",
"                          |.|.|.oXZ.* O X o . . , G.9XQ.O. . .O. . . . . . .o.W.0XbX8XC.1 C.]. Xj.' ' +.U.U.+.                  ",
"                        |.|.~.|.3X1 X . . . . O 2 3XoXk. .O.O. . . . . . .| T.0XmXCXfXC.+ O , D.J.R ) o.I.Y.T.                  ",
"                      |.|.~.~.XX8X, o . . . X , D.XXQ.O. .O.O. . . . . . .@.oXgXmXmXvXG.+ . O 2 K.R R ' j.Y.T.                  ",
"                    _._.~.Q.~.0X7X3 O X X + 1 D..X~.@.O.O.O.O. .O. . .| | W.9X&XG.F.F.1 X . o 1 K.` / ' +.U.T.                  ",
"                  z.z.z.z.E.E._.0X3XG.C.G.F.3XXXQ.$.O.O.O.O. . .O. .| { @.|.2XC.+ + + X . . X 1 '.] / ' +.U.Y.                  ",
"                ..! ! ! ..%.l.l.E.~.|.|.|._.Q.U.%.#.#.#.O.O.O. .O. .| { @.XX].1 o . . . . . X 3 '.] / ' +.U.Y.T.                ",
"                W L L W W ! $.$.$.%.%.$.$.%.%.#.#.#.O.O.O.O. . . . . . .I.XXF., o . . . . o + C.'.] / ' +.I.Y.T.                ",
"              Q W b b H L ..|.|.~.Y.$.O.O.O.O.#.O.{ I Z C I ( {  . . . .@.XX2Xr.+ . . . . O 1 ].L._ / ' +.I.Y.T.                ",
"              Q L b c b L ..XXuXuX0X|.T.o.|  .O.O.^ j @ @ @ h I { {  . .o.T..X*XC., O O + 3 F.[.H.' ' ' +.I.Y.T.                ",
"              W L b c b L ..-XgXgXgXuX.Xp.I (  . .{ C - @ # h I { { { { { | I.}..X].D.D.].2X.X^.' ' ' ] +.I.Y.T.                ",
"              W L b b H W U.9XgXdXgXgXeXZ.N h C ~ ^ ^ I C I ) { { { { { { { { o.@.R.^.!.!.^.] ' _ _ ' o.+.I.Y.T.                ",
".XK i u a     W L H H L } }.wXsXsXsXsXqXZ.- # % - N B F C I ^ ( ( ( { { { | | { { { { { ( ( ) ) ) ( _ ' +.j.Y.T.                ",
"wX!.g 7 0 f     ! Q Q ..!.9XtXtXtXtXtX5Xt.- $ $ - Z.&XD.S - h j j B A p.!.}.}.!.^.R.] / R H G H H H R ) o.j.Y.T.                ",
"sX-X] c x b H   Y.T.~. XwXtXtXtXtXtXtXqXS.N $ $ N S.fX7Xt.& $ $ # < S.2XwXwXwXqXwX9X'.` H b x z z x v K R @.Y.T.                ",
"  tX.X| H b H     wXtXsXdXsXtXtXeXeXeXeX*XZ.N % % N S S < $ $ $ - t.*XrXrXrXrXrXqX.Xh.H x z q q q r r x K | U.T.                ",
"  dXwX}.R H K R _   rXfXdXdXdXtXtXtXeXqXqX3X{.t.N - % % % $ % - S ].qXqXqXqXqXqX3XJ.Y x z q 0 0 w w r k G } k.T.                ",
"    sX9X!._ ) ^ ^ / H.[.qXyXyXdXsXsXsXtXrXeXqX2X].S.Z.t.S S t.S.&X5XqXqXqXqX5X5X{.` b z q 0 0 0 w r r k G } k.Y.                ",
"    sXtX-X^.' ( ^ R ^ H.[.4X4X7XfXdXdXdXsXtXtXrXrXqX5X2X3X*X3X2X2X2X2X2X2X2X2X2X'.) v z q 0 0 w w r r x H | k.                  ",
"      sXtX-X}.] / ^ ^ H.&XOX6.OX@X6XfXdXdXdXdXsXtXtXtXrXqXqX5X5X5X2X2X2X3X3X2X2X{.[ v z r w w w r r k G R @.                    ",
"        tXrX9X XH._ U s.=X#X7.5.5.7.+X#X6XfXdXgXdXsXsXsXtXtXrXeXqXqX5X2X2X3X3X3X[.K.T v x r r r k x G ' R.                      ",
"            qXqX*X/.s.(.fXvXaX#X+X6.6.+X#XpXcXcXvXdXsXsXsXsXsXsXtXtXrXeXqXqX5X2X2X[.L.` T G G G K _ ^. X                        ",
"              qXqXqXrXfXcXMXBXBXMXMXnXnXmXmXmXmXmXmXnXvXfXfXfXsXdXsXtXtXtXtXtXrXrXqX9X.X'.L.L.L.}..X                            ",
"                yXyXiXyXjXcXBXCXVXVXVXmX:Xg.f.f.f.f.%X:X:XfXfXvXfX5X).P.L.'.[.[.-X9X9X9XrXrXwXwX                                ",
"                J.E m Y E x.oXjXCXVXCX:Xd.q.0.0.0.0.0.q.w.d.%X:XfX7X[.h.J V V V V V J h.3XqX.X                                  ",
"              ).Y s d d s s n E oXbXCXhXg.w.0.0.0.0.0.0.0.0.q.w.%XfXvXyX3X{.K.P.h.[ P.{.*X/.a./                                 ",
"              9Xx.n d d d d d s n `.bXVXmX:Xg.d.w.q.q.0.0.0.0.q.f.hXcXcXvXkXAX7X7X7X7X6X/.i.U I ^                               ",
"            ;XrXiXW.m l s d d d s E iXVXVXVXmXhXhX:X%Xg.f.f.g.%XhXnXZXvXkXkXpX7X7X7X7X7X=Xi.i.I J ~ /                           ",
"            s.;XvXvXiX`.x.Y m m E `.bXVXVXVXVXVXVXVXCXCXmXmXCXCXnXpX@XOXA.6.6.6.A.OX#X4X7X=X/.[ J J ~ /                         ",
"            (.qXcXMXBXBXbXjXjXjXbXCXVXVXVXVXVXVXVXVXVXVXVXVXCXMX@X7.-.=.=.=.&.&.=.=.2.8.OX7X5XK.[ ~ T T ^ R                     ",
"            fXvXcXMXBXCXCXCXVXVXVXNXNXzXlXlXzXzXNXNXCXVXVXVXCXnX+X2.=.&.&.&.&.&.&.&.&.&.5.#X7X*X'.K.[ T G G H Y                 ",
"            4X@X@X4XpXnXCXVXVXVXzX,XB.m.m.m.m.M.B.V.,XxXzXNXCXBXaX+X8.2.-.=.=.&.=.=.*.3.A.4X7X*X].[.'.P.R H b b x g a           ",
"            u.8.5.5.8.9.#XpXMXCXxXM.n.v.v.v.v.v.v.b.n.m.B.,XzXNXBXnXpX@X$XA.c.c.c.A.$X1XaX7X;X  [.*X*X[.{.J.` G g 7 7 0         ",
"            P.t.e.3.;.-.5.7.$XpXMX<XN.m.n.b.v.v.v.v.v.v.b.m.V.zXNXNXMXMXvXvXkXkXkXkXkXkX7X(.s.        3X3X*X[.L.~ t 0 7         ",
"              H.a.p.y.u.7.5.5.OXnXCXNXlX,XN.M.m.m.n.n.n.m.M.,XzXNXBXMXcXcXcXvXvXvXvXkXkXrX(.i.              2X3X[.'.[ V         ",
"              R.I.j.^. X=X&X$X#XfXBXCXCXBXNXzXlXxX<X<X<X<XlXzXcXjXiX>X[.{.{.[.[.3X5X7XkXvXrX;X                                  ",
"                R.I.U.!.-XtXeXeXrXrXtXdXvXvXcXcXcXZXZXMXMXZXyX).` G x z l l l z v G h.{.yXvX                                    ",
"                  R.U.U.!..XwXtXtXrXqXqXqXqXqXqXqXqX7X7XyX7X[.J.h.[ T J x z f z z z v R L.                                      ",
"                    U.U.U.T.!..X9XwXqXqXqXqXqX5X2X2X2X2X3X3X3X*X[.[.'.h.~ T T T ^ / _ o.                                        ",
"                      Y.k.j.j.I.^.!. X.X-X9X9X9X2X2X3X3X*X*X*X[.'.K.] / ^ ^ / / ' +.j.                                          ",
"                        I.o._ / / _ ] j.R.^.!.}.}.}.'.}.L.L.H.H.] _ / / / _ ' ] +.j.                                            ",
"                        @.| ) T J J J J J T           I.I.j.+.] ' ' / / / / / _ o.                                              ",
"                          Q K G x x k r r                   +.' / ^ ~ T J J J J R                                               ",
"                            b x r q w w r                     | ( R J G G v x x v                                               ",
"                              x r q 0 w r                         R K G x k r r r                                               ",
"                                                                    G x k r w r r                                               ",
"                                                                        x r r r                                                 "
};
