/* XPM */
static char *fb225c30a61348ebeb8502b24e98aca7T4a8uW7NE3lHsy8d[] = {
/* columns rows colors chars-per-pixel */
"64 64 211 2 ",
"   c None",
".  c #132625",
"X  c #162D29",
"o  c #162B28",
"O  c #19332C",
"+  c #1C3B2E",
"@  c #17332B",
"#  c #1D3E31",
"$  c #2D382A",
"%  c #353C2A",
"&  c #233F33",
"*  c #1F4334",
"=  c #1F402F",
"-  c #214534",
";  c #234B36",
":  c #2A4E37",
">  c #234C39",
",  c #274636",
"<  c #26523A",
"1  c #29563A",
"2  c #2B5C3C",
"3  c #275337",
"4  c #365939",
"5  c #2E623E",
"6  c #32643D",
"7  c #3B693F",
"8  c #49482D",
"9  c #464B30",
"0  c #6D4D26",
"q  c #644D29",
"w  c #6A5129",
"e  c #705027",
"r  c #725329",
"t  c #77592C",
"y  c #795C2E",
"u  c #6E572B",
"i  c #5E6A37",
"p  c #406C3D",
"a  c #7D6130",
"s  c #2A5B43",
"d  c #275440",
"f  c #2E6443",
"g  c #2F6348",
"h  c #326643",
"j  c #336B42",
"k  c #3A6B41",
"l  c #336D4C",
"z  c #31674C",
"x  c #367344",
"c  c #3A7344",
"v  c #3A7B45",
"b  c #36744D",
"n  c #3B7C4A",
"m  c #3E7548",
"M  c #367453",
"N  c #3A7D53",
"B  c #3B7E59",
"V  c #3B7657",
"C  c #447445",
"Z  c #497947",
"A  c #457E4A",
"S  c #557645",
"D  c #497D54",
"F  c #6F7844",
"G  c #4D7864",
"H  c #816633",
"J  c #856B36",
"K  c #886F38",
"L  c #8B733A",
"P  c #8E783D",
"I  c #917B3E",
"U  c #947E40",
"Y  c #3C8147",
"T  c #3D844A",
"R  c #3F884C",
"E  c #3E8552",
"W  c #3C825B",
"Q  c #3F8859",
"!  c #3F8760",
"~  c #3F8961",
"^  c #448147",
"/  c #43844B",
"(  c #4B834B",
")  c #418B4D",
"_  c #4B8C4C",
"`  c #4E8046",
"'  c #538E4C",
"]  c #56864A",
"[  c #45924F",
"{  c #4D934E",
"}  c #51934E",
"|  c #5D934D",
" . c #4B8253",
".. c #418B53",
"X. c #4C8E51",
"o. c #41845B",
"O. c #418B5A",
"+. c #478859",
"@. c #588857",
"#. c #459551",
"$. c #4A9552",
"%. c #479851",
"&. c #4A9C53",
"*. c #4E9B59",
"=. c #439058",
"-. c #529453",
";. c #549B52",
":. c #5F9B51",
">. c #599D5C",
",. c #599754",
"<. c #668547",
"1. c #7D8648",
"2. c #6B974E",
"3. c #639C51",
"4. c #659B56",
"5. c #4EA255",
"6. c #51A556",
"7. c #54A957",
"8. c #59A25A",
"9. c #5AA759",
"0. c #63A455",
"q. c #6BAB56",
"w. c #64AC5B",
"e. c #66A858",
"r. c #75A859",
"t. c #66B45E",
"y. c #6EB55B",
"u. c #6EB057",
"i. c #72B257",
"p. c #74B45B",
"a. c #79B65B",
"s. c #75B95C",
"d. c #7DBB5B",
"f. c #408A62",
"g. c #4C846B",
"h. c #4E9B6F",
"j. c #4C966B",
"k. c #579768",
"l. c #4F9D70",
"z. c #529E71",
"x. c #538B6B",
"c. c #5AAC64",
"v. c #5DA36D",
"b. c #5CA676",
"n. c #64AF60",
"m. c #61A46F",
"M. c #76AD67",
"N. c #65B363",
"B. c #69B662",
"V. c #6BB863",
"C. c #6AB269",
"Z. c #73B561",
"A. c #7CB464",
"S. c #74BA63",
"D. c #7BBC64",
"F. c #7BB86B",
"G. c #64AC76",
"H. c #66AB7E",
"J. c #66A37B",
"K. c #6AB379",
"L. c #66B179",
"P. c #79B675",
"I. c #7DBC7B",
"U. c #75B678",
"Y. c #72AE70",
"T. c #978242",
"R. c #998544",
"E. c #9C8946",
"W. c #9F8D48",
"Q. c #A18F49",
"!. c #A4934B",
"~. c #A99A4E",
"^. c #AC9D50",
"/. c #9CA455",
"(. c #81BB5F",
"). c #AFA152",
"_. c #A7A856",
"`. c #B2A555",
"'. c #B6A957",
"]. c #B7AB58",
"[. c #B8AC58",
"{. c #86BF66",
"}. c #85BE72",
"|. c #82BF7C",
" X c #8AC16A",
".X c #86C063",
"XX c #89C072",
"oX c #83C07D",
"OX c #86C074",
"+X c #669F87",
"@X c #5DA383",
"#X c #63A28A",
"$X c #78B384",
"%X c #6BAD94",
"&X c #76B398",
"*X c #74AC90",
"=X c #75B7A4",
"-X c #7AB9A5",
";X c #78B8A5",
":X c #84BD85",
">X c #8BB998",
",X c #80BCA9",
"<X c #8AC28B",
"1X c #8EC496",
"2X c #93C698",
"3X c #9AC4A6",
"4X c #96C6B0",
"5X c #A5CDB4",
"6X c #ABD0B7",
"7X c #ADD1B9",
"8X c #A4C9AD",
/* pixels */
"                                                        I.H.@X&X>X2X2X                                                          ",
"                                                  XXXXXXXX}.H.$XJ.:X2X2X<X<X                                                    ",
"                                              F.XXXXXXXX}.}.K.L.G.K.I.I.I.I.I.                                                  ",
"                                          c.c.C.F.XX}.P.U.U.K.K.K.K.G.k.m.U.I.1X                                                ",
"                                        c.c.c.c.N.F.@.+.k.k.G.K.L.b.b.z.h.z.b.b.%X                                              ",
"                                        c.c.8.m n k 2 2 2 5 +.G.+.o.h.j.l.h.h.z.b.+X                                            ",
"                                        N.N.9.A 5 2 2 2 2 2 # - * > < s f.l.l.G.H.v.k.                                          ",
"                                      B.t.t.B.w.j 2 2 3 5 n c x c 2 + + ; z >.d.d.d.Z.v.                                        ",
"                                  S.B.t.t.t.B.;.: 3 + 2 %.6.6.6.6.5.v + + + | d.d.d.d.s.C.                                      ",
"                                  V.V.t.B.t.8._ j j 5 [ [ %.6.5.5.%.5.T T T ;.p.d.d.d.d.d.                                      ",
"                                    >.t.t.*.T ) ) ) ) ) T j %.5.T T &.&.%.%.%.&.q.d.d.a.a.                                      ",
"                                  E ..9.*.E R R ) ) ) R ) v T #.n ) %.%.%.%.%.%.{ q.d.3.                                        ",
"                                o.Q E ..E N E R ) ) R T R E E E E E ..[ %.%.%.) j c | ^ j                                       ",
"                                  E E E z > f T ) T j x E E E E E E E v T %.%.v - 2 A ( D  .@.                                  ",
"                          7X3X3X$X+.$.0.3.Z k / v 1 - n E E E E E E T b + 6 ;.' ] r.a.p.4.@.@.>X6X6X6X6X                        ",
"                    8X6X6X>Xk.k. .A a..X.X{.(.p.Z ; - b k f E E E f * 2 X 4 a.d.d.d.d.p.( , & G 3X6X5X6X5X,X                    ",
"                5X>Xk.$XI.B.N.N.w.-.4.p.S.V.S.{.Z.8.m ; # # 1 n j + . . . : | Z.D.D.D.D.D.,.@.Y.:X2X<X3X5X4X-X                  ",
"              =X;X=X%Xk.8.B.B.B.B.B.-.m X.8.N.B.N.N.N.( ; * : v T v 5 3 v / q.D.D.D.D.D.S.F.oXoX|.|.|.oX<X1X-X&X-X              ",
"            =X=X;X;X;X#X;.B.B.B.B.V.-.1 < k n.N.N.N.N.N./ v [ #.#.%.%.&.&.6.D.D.D.D.D.D.4.A.oX|.I.|.oXoXP.Y.k.D x.              ",
"            -X=X&X;X&XG -.n.>.X.n.w.k 3 : ; ( N.N.8._ 8._ ) #.#.#.#.) v [ 6.Z.w.w.S.D.D.{.{.XXOXF.Y.P.|.Y.c ( ;.0.y.            ",
"            #Xg.V J.k.Z C k : # h 1 ; ; - - > / X.v x v v R [ ) %.%.v - T *.5.) 3 e..X{. X X X X XA.(  . .5 _ y.y.y.y.          ",
"          *...v ^ u.s.s.p.y.:.: O @ * - - - - 1 k c ' } ^ x < ; T [ Y v / [ ) v 6 A. X X X X X{.] C k 2 2 2 j 0.y.y.y.y.        ",
"      5.*.*.5.6.p.s.s.s.s.s.s.C o X * - - - 2 3.a.a.d.d.i.{ v 3 - v } q.i.q.0._ Y r.r.] A. X X{.4 @ 2 1 1 5 2 -.s.y.y.w.0.      ",
"    5.*.*.*.&.9.p.p.s.s.s.s.s.( - - : ; ; ; ' d.d.d.d.d.d.i._ T 1 ' d.d.d.d.d.a._ c - O : | A.A.c j T v : 3 1 k ( ( y.w.(       ",
"      5.&.*.*.5.$.q.s.s.s.s.s.9.5.&.%.n 1 : 0.d.d.d.d.d.u.q./ j c i.d.d.d.d.d.d.:.5 ; O + ; / 6.&.&.&.&./ = X o . + _ w.        ",
"      %.*.*.[ %.v q.s.s.t.y.y.7.7.7.7.*.b s ( :.| d.d.a.{ R v + 7 d.d.d.d.d.d.d.0.x 2 ; 1 1 ) &.%.%.%.%.&.v ; 1 : 6 x v v       ",
"      %.&.[ v T ) 0.y.t.7.7.7.7.7.7.7.&.z b b z 7 9.w.9./ x Z F S ` 2.d.d.d.a.d.0.) T ) %.[ %.%.%.%.%.%.%.%.) T T v x j x       ",
"    v ) ) v T ) ) ) %.6.6.6.7.7.7.6.7.&.x v v ) 5.5.5.5.5.n 1 4 6 5 ' d.d.a.;.;.%.[ &.&.&.&.&.%.%.%.%.%.[ ) T T T Y x x x       ",
"    v v x x v R ) ) ) [ ) 5.7.7.6.) _ ) v v v v %.5.5.5.5.5.j ; 3 5 A a.d.8.) ) ) %.&.&.&.&.&.&.%.T %.%.) Y T T T v v x x       ",
"    v j 2 1 x R ) ) ) ) ) %.7.5./ v v v v v v v ) 5.5.5.5.6.) 3 3 1 j } } ) ) ) ) %.%.%.&.&.&.&.&.) &.5.%.T Y Y T v x x x       ",
"      3 3 > f ) ) ) ) ) ) %.5.%.) Y v v v v T [ [ 5.5.5.&.n c 1 5 5 j 6 x ) ) ) ) n ) %.&.&.&.[ %.5.7.7.7.[ ) ) T v 6 2 j       ",
"      3 1 j n ) ) ) ) ) %.&.&.&.&.[ v v v v / 0.r.6.5.5.%.< ; 1 k j v ^ ) ) ) [ T 3 5 T &.&.) 2 %.6.7.7.7.6.6.5.T T n s         ",
"      h T R R R R ) %.%.&.&.&.&.&._ 2 v v v p 2.:.&.5.6.%.j 1 S <.T %.%.%.[ [ #.) 3 ; 5 %.%.: - 5.7.7.7.7.7.7.7.%.) #.#.        ",
"        T T R R T [ &.&.&.&.&.&.&.[ + 1 v x 6 [ %.%.%.*.%.%.-./.r.%.%.%.%.%.%.%.) 2 ; > j 2 # ; &.6.5.7.7.7.6.5.%.#.#.=.        ",
"        T T T T R #.%.&.&.&.&.%.&._ : O < b n %.%.%.%.%.%.( ] _./.<._ %.%.%.%.=.O.B l < * * * ; x h 5 *.7.7.5.#.....#.#.        ",
"        T T T T T E ..&.&.&.) 5 c v 3 s M W Q %.%.%.%.%.%.i t !.[.W.` %.%.%.=.f.~ ~ f.s * * * * * * s ..*.6.O...W E ..#.        ",
"        T x b N N N E %.&.) 1 ; ; 3 l W W W W ....=.&.%.%.i 0 P ].`.2.#.[ ( o.~ ~ ~ f.N > * * * * ; M W W O.W W M > 1           ",
"          - > l N N N E ..b > ; ; f W W W W W B D 1.1.3.,.u 0 y `.]./.<.i q , s ! ~ f.f.l - * * * < B W W W W W g * *           ",
"            ; b N N N N N b > ; > M W W W W W M 9 e e P _.L 0 e !.].].!.y 0 $ - ~ ~ ~ f.! z ; * * < B W W W W W                 ",
"              N N N N N N h ; ; 1 N W W W W W V $ r e t ^.R.0 0 R.].].].~.P % ; ~ f.f.! ~ f.s # * # M W W W W W W               ",
"              N N N l b N # O * 1 N W M N W W M $ E.L 0 !.Q.0 0 T.[.].].[.^.9 # B f.W d s W ; @ O X < W     W W                 ",
"                          o . @ 1 z l f f M M d % !.R.e !.R.0 0 R.[.].].'.Q.8 O > s ; X @ # X X O X                             ",
"                                2 2 2   2         W.J y ).K 0 e Q.[.].~.L t 8         X     X X                                 ",
"                                                  y e R.!.r 0 y ).].E.y 0 0 q                                                   ",
"                                                  0 L ^.H 0 0 P ].E.r 0 0 y H                                                   ",
"                                                  K ~.L 0 0 y ^.~.t 0 0 a !.E.                                                  ",
"                                                  T.J 0 0 e E.'.L 0 0 y !.[.Q.                                                  ",
"                                                  e 0 0 0 P '.^.t 0 0 U ].].!.                                                  ",
"                                                  0 0 0 L `.[.!.e 0 e !.[.].!.                                                  ",
"                                                  0 t I `.].[.!.e 0 e Q.[.].!.                                                  ",
"                                                  P ~.'.].'.].^.t 0 0 J '.[.^.                                                  ",
"                                                  !.[.[.[.].].'.J 0 0 e L ~.E.                                                  ",
"                                                  !.^.!.!.).].[.Q.r 0 0 0 e e 0                                                 ",
"                                                I L t e e y E.'.'.E.y 0 0 0 0 y                                                 ",
"                                              T.J 0 e r 0 0 e U '.].^.U J J U ~.I                                               ",
"                                            R.I e P !.~.T.y 0 e E.].].].'.'.].].).P                                             ",
"                                          L ~.y L '.[.].[.!.t 0 y ^.].].].].].'.].~.                                            ",
"                                          Q.!.t !.[.'.].].].I 0 0 I ].].].].].].].].!.                                          ",
"                                          ^.U a `.].].].].].!.r 0 y ).].].].].].].].`.P                                         ",
"                                        L ^.J K ].].'.].].].`.y 0 e W.[.].].].'.'.'.'.W.                                        ",
"                                              L ~.'.].'.].].'.H 0 0 I ].].].].'.E.U R.I                                         ",
"                                              e r P `.].'.'.).H 0 0 P ].].].].[.!.                                              ",
"                                              0 0 0 L !.W.T.        J E.Q.!.~.).Q.                                              ",
"                                                                                                                                "
};
